<?xml version="1.0" standalone="no"?>
<!DOCTYPE svg PUBLIC "-//W3C//DTD SVG 20010904//EN"
 "http://www.w3.org/TR/2001/REC-SVG-20010904/DTD/svg10.dtd">
<svg version="1.0" xmlns="http://www.w3.org/2000/svg"
 width="1024.000000pt" height="1024.000000pt" viewBox="0 0 1024.000000 1024.000000"
 preserveAspectRatio="xMidYMid meet">
<metadata>
Created by potrace 1.11, written by Peter Selinger 2001-2013
</metadata>
<g transform="translate(0.000000,1024.000000) scale(0.100000,-0.100000)"
fill="#000000" stroke="none">
<path d="M230 10234 c0 -3 24 -29 53 -57 28 -29 64 -68 80 -87 15 -19 38 -49
52 -66 14 -18 25 -36 25 -42 0 -5 7 -15 15 -22 17 -14 112 -208 145 -295 13
-33 31 -79 42 -102 10 -24 18 -46 18 -49 0 -3 6 -20 14 -37 28 -62 135 -343
156 -412 12 -38 30 -92 40 -120 10 -27 25 -72 33 -100 9 -27 38 -120 66 -205
27 -85 54 -173 60 -195 5 -22 19 -74 30 -115 27 -96 70 -322 80 -425 20 -187
-5 -485 -54 -636 -8 -26 -15 -52 -15 -59 0 -13 -56 -157 -97 -250 -63 -143
-79 -166 -183 -270 -136 -136 -152 -148 -285 -215 -104 -52 -115 -56 -166 -51
-30 2 -57 5 -61 5 -5 1 -8 8 -8 16 0 8 -6 16 -12 16 -7 1 -20 3 -28 4 -20 2
-42 11 -134 56 -44 22 -83 39 -88 39 -4 0 -8 -1476 -8 -3280 l0 -3280 5120 0
5120 0 0 1245 c0 989 -3 1245 -12 1245 -7 0 -83 -7 -168 -15 -258 -25 -846
-59 -1192 -70 -106 -4 -199 -8 -206 -11 -17 -5 -386 -5 -446 1 -54 5 -89 25
-44 25 15 0 30 5 33 10 4 6 11 8 16 4 5 -3 7 -10 3 -15 -3 -6 3 -5 15 3 26 16
27 24 1 31 -15 4 -21 17 -26 58 -6 43 -14 60 -46 91 -44 43 -46 51 -17 72 l22
15 -28 7 c-26 6 -153 -7 -240 -26 -22 -5 -56 -12 -75 -15 -19 -3 -72 -13 -118
-21 -97 -17 -204 -29 -437 -48 -191 -16 -429 -28 -402 -20 13 4 17 14 15 32
-2 19 3 29 20 38 13 6 29 17 35 23 6 6 19 11 28 11 10 0 31 11 47 25 17 14 33
25 37 25 3 0 25 19 49 42 48 48 69 64 108 79 18 7 28 19 30 37 2 19 9 27 23
27 11 0 38 17 59 38 22 20 43 37 48 37 10 0 79 47 92 64 6 8 20 16 31 18 11 2
29 17 40 35 11 17 30 34 43 38 14 3 22 12 20 23 -2 14 4 17 35 16 20 -1 37 3
37 8 0 5 -5 6 -10 3 -6 -3 -10 -2 -10 4 0 12 134 12 167 0 16 -6 21 -14 16
-25 -4 -11 6 -27 31 -50 26 -24 36 -41 36 -62 0 -17 6 -32 15 -36 8 -3 15 -13
15 -22 0 -16 1 -16 19 0 17 16 20 15 51 -14 18 -17 44 -33 59 -36 14 -4 31 -9
36 -13 6 -3 15 -6 20 -6 6 -1 18 -5 28 -9 10 -5 23 -3 32 4 13 10 15 9 15 -9
0 -12 7 -24 15 -27 9 -4 14 -13 13 -22 -4 -20 30 -30 105 -31 57 -1 58 -1 55
-29 -3 -26 -1 -27 34 -24 31 2 37 0 32 -13 -4 -9 -1 -15 9 -15 10 0 17 11 19
27 2 21 -5 35 -27 55 -25 23 -28 29 -15 38 8 5 24 10 34 10 10 0 24 7 31 17 9
11 18 14 31 8 18 -8 18 -9 -2 -12 -31 -6 -61 -40 -47 -54 7 -7 17 -8 25 -3 12
8 68 13 68 6 0 -2 -5 -12 -11 -23 -7 -14 -16 -18 -31 -13 -15 4 -19 2 -16 -7
7 -21 75 -11 103 15 39 36 33 63 -17 76 l-41 12 26 21 c24 20 25 24 12 41 -8
10 -19 15 -26 10 -8 -4 -10 -3 -5 5 4 6 16 9 26 6 10 -3 21 -1 25 5 10 16 38
12 32 -4 -3 -8 1 -17 9 -20 22 -8 17 -26 -8 -26 -20 0 -17 -4 14 -25 21 -14
42 -34 48 -45 7 -12 21 -20 37 -20 21 0 24 3 15 12 -17 17 -15 68 2 68 8 0 17
6 19 13 3 6 6 1 6 -12 1 -20 3 -21 16 -11 8 7 15 20 15 29 0 19 45 64 73 74 9
4 20 15 23 24 3 10 10 25 15 33 5 8 16 29 24 47 8 18 24 37 35 43 28 15 25 27
-10 45 -43 22 -38 36 10 29 39 -6 70 9 70 35 0 6 8 20 17 31 12 14 16 34 14
71 l-3 51 31 -7 c29 -6 31 -5 37 34 4 22 10 38 14 36 4 -3 11 6 14 20 4 17 13
25 29 25 17 1 28 14 49 60 28 59 28 96 1 86 -8 -3 -17 -6 -19 -6 -2 0 -4 -16
-4 -35 0 -27 -4 -35 -19 -35 -14 0 -19 10 -24 48 -3 26 -10 60 -16 76 -10 26
-15 28 -46 22 -27 -5 -37 -3 -46 13 -11 17 -16 18 -50 6 -36 -13 -37 -13 -42
13 -7 37 -2 42 33 29 27 -10 32 -8 60 18 24 23 30 37 30 69 0 30 5 45 20 54
11 7 20 23 20 37 0 27 17 34 26 11 4 -10 12 -6 32 14 35 36 48 58 57 99 5 23
33 59 95 121 49 48 96 104 104 124 8 20 20 36 25 36 6 0 11 6 11 13 0 8 11 24
25 37 14 13 34 48 46 79 19 52 20 63 10 149 -6 51 -9 98 -6 103 4 5 1 9 -5 9
-7 0 -14 -9 -17 -20 -6 -22 -5 -22 -83 -21 -80 0 -146 -12 -142 -28 2 -8 -4
-10 -18 -6 -11 3 -45 1 -76 -5 -45 -10 -62 -9 -81 1 -19 10 -28 10 -43 1 -28
-17 -44 -15 -65 8 -11 12 -26 18 -35 15 -10 -3 -22 1 -29 9 -7 8 -24 17 -39
21 -15 4 -34 13 -43 21 -8 7 -24 15 -36 17 -12 1 -27 8 -35 13 -18 14 -68 32
-93 32 -42 2 -110 14 -127 23 -18 10 -53 -5 -62 -26 -44 -100 -76 -183 -76
-196 0 -9 -9 -24 -20 -34 -11 -10 -20 -24 -20 -32 0 -7 -17 -46 -37 -86 -28
-55 -37 -84 -37 -124 0 -41 -4 -53 -16 -54 -8 0 -44 -46 -80 -101 -36 -56 -80
-124 -97 -151 -18 -27 -33 -52 -33 -55 0 -3 -22 -36 -50 -74 -27 -38 -50 -71
-50 -74 0 -11 -110 -150 -165 -209 -31 -33 -68 -75 -83 -94 -38 -49 -277 -287
-294 -293 -21 -9 -42 7 -35 26 4 9 18 21 32 26 22 9 25 15 25 63 0 39 6 61 19
79 11 13 23 36 26 50 4 15 15 28 26 31 14 4 19 14 19 41 0 22 6 39 18 46 12 8
13 13 5 16 -7 3 -13 10 -13 15 0 6 4 8 9 5 5 -3 9 4 9 17 0 41 15 102 29 119
16 18 14 74 -2 71 -5 -1 -11 -13 -13 -25 -2 -13 -10 -37 -18 -55 -8 -17 -14
-39 -14 -48 0 -9 -14 -30 -30 -47 -17 -16 -30 -36 -30 -44 0 -13 -55 -97 -91
-139 -9 -11 -27 -40 -40 -64 -12 -24 -35 -51 -50 -59 -14 -9 -35 -29 -45 -44
-19 -28 -50 -45 -61 -34 -11 11 16 56 41 67 30 14 48 48 51 96 3 60 4 61 25
68 12 4 22 19 26 41 4 24 14 38 29 44 12 5 27 23 34 42 7 18 20 46 28 61 8 16
13 37 10 48 -3 10 4 30 15 44 23 29 14 56 -9 28 -14 -17 -14 -16 -9 7 3 14 6
31 6 38 0 6 9 12 20 12 11 0 20 7 20 15 0 8 7 15 15 15 14 0 20 22 17 61 -1 9
7 19 17 22 14 3 21 18 26 58 5 35 14 58 26 67 25 17 24 31 -1 25 -28 -8 -25
16 4 26 13 5 26 19 29 31 3 12 10 19 16 15 15 -9 14 60 0 83 -9 14 -6 29 15
71 37 73 22 113 -29 77 -28 -19 -279 -146 -290 -146 -5 0 -16 -6 -24 -14 -9
-8 -77 -39 -151 -70 -74 -32 -160 -68 -191 -81 -98 -43 -326 -123 -401 -140
-40 -10 -82 -21 -93 -25 -52 -20 -157 -50 -175 -50 -10 0 -45 -7 -77 -16 -115
-32 -179 -46 -258 -55 -44 -6 -96 -14 -115 -20 -19 -6 -80 -15 -135 -20 -209
-21 -262 -27 -335 -38 -87 -13 -569 -13 -675 0 -38 5 -106 12 -150 15 -170 11
-303 25 -365 39 -36 8 -101 19 -145 24 -44 6 -120 20 -170 31 -49 11 -119 27
-155 34 -36 7 -74 18 -85 24 -18 10 -56 20 -145 38 -14 3 -34 10 -45 15 -11 5
-47 16 -79 24 -33 8 -64 19 -70 25 -5 5 -18 10 -28 10 -10 0 -26 4 -36 10 -9
5 -61 25 -115 45 -94 34 -138 53 -312 134 -44 21 -107 50 -140 66 -33 15 -69
35 -80 45 -11 10 -37 23 -57 29 -21 7 -40 17 -44 22 -6 11 -120 87 -149 100
-19 9 -40 22 -144 92 -22 15 -41 32 -41 37 0 6 -11 15 -25 20 -14 5 -25 14
-25 20 0 5 -5 10 -10 10 -24 0 -197 146 -325 275 -153 153 -245 260 -245 284
0 4 -13 19 -29 32 -15 13 -33 34 -40 47 -14 26 -33 30 -24 5 15 -44 56 -130
74 -154 10 -15 19 -36 19 -47 0 -11 6 -22 13 -25 6 -2 20 -27 30 -55 10 -28
25 -56 32 -62 8 -6 17 -25 20 -41 4 -16 22 -47 41 -70 33 -40 52 -84 41 -95
-25 -25 -194 253 -259 426 -12 30 -27 64 -34 75 -8 11 -14 27 -14 37 0 10 -27
73 -59 142 -67 139 -194 507 -210 605 -12 72 -36 114 -27 46 48 -353 109 -603
213 -870 40 -104 55 -137 152 -335 73 -149 88 -176 150 -270 20 -30 40 -64 46
-75 23 -46 51 -85 60 -85 11 0 66 -92 75 -125 3 -11 12 -20 20 -20 7 0 15 -6
18 -12 2 -7 -3 -13 -12 -13 -22 0 -41 -39 -27 -53 9 -9 13 -6 17 11 6 22 21
28 39 14 14 -9 13 -28 -2 -43 -8 -8 -13 -39 -13 -74 -1 -51 -2 -57 -12 -40 -7
11 -13 26 -14 33 -4 22 -13 27 -27 13 -9 -10 -8 -15 6 -25 13 -10 17 -28 17
-75 0 -49 3 -61 16 -61 11 0 14 5 10 16 -5 14 -4 15 9 4 10 -8 15 -31 15 -70
0 -41 5 -63 19 -79 21 -24 35 -57 51 -119 8 -33 19 -48 46 -64 33 -19 45 -38
24 -38 -19 0 -10 -16 39 -71 40 -45 48 -60 44 -82 -4 -22 -2 -27 14 -27 24 0
43 -18 43 -41 0 -10 6 -24 14 -32 22 -22 23 -45 1 -61 -18 -14 -18 -15 -2 -16
9 0 26 -9 36 -19 23 -23 11 -31 -50 -31 -43 0 -49 -11 -19 -37 25 -22 25 -45
0 -68 -14 -13 -20 -14 -20 -5 0 9 -6 8 -20 -5 -11 -10 -20 -25 -20 -34 0 -9
-6 -26 -14 -37 -8 -11 -16 -31 -18 -44 -2 -16 -11 -26 -28 -30 -16 -4 -24 -12
-22 -22 1 -9 -2 -19 -8 -23 -20 -12 -10 -25 20 -25 19 0 33 -6 37 -16 10 -26
-11 -37 -50 -26 -43 12 -49 8 -34 -25 9 -21 8 -27 -8 -39 -11 -8 -20 -24 -20
-37 0 -13 -9 -26 -22 -32 -28 -12 -30 -35 -3 -35 27 0 25 -28 -3 -39 -13 -5
-29 -16 -37 -25 -12 -15 -11 -18 8 -23 32 -8 27 -33 -8 -40 -25 -4 -30 -10
-30 -33 0 -30 -22 -55 -42 -47 -7 2 -21 0 -31 -5 -14 -7 -17 -16 -12 -38 5
-22 2 -30 -13 -34 -11 -4 -23 -18 -26 -31 -4 -15 -14 -25 -25 -25 -23 0 -61
-41 -43 -47 6 -3 12 -11 12 -19 0 -8 15 -29 34 -47 54 -51 97 -147 65 -147
-17 0 -46 18 -73 45 -19 18 -36 25 -66 25 -22 0 -40 -5 -40 -10 0 -20 27 -75
43 -89 10 -7 17 -20 17 -29 0 -8 6 -23 14 -31 18 -21 30 -88 16 -96 -12 -8
-13 -25 -1 -25 8 0 135 -125 242 -237 47 -50 116 -106 143 -116 29 -11 129
-79 139 -94 4 -7 16 -13 26 -13 10 0 24 -6 30 -14 7 -8 23 -17 36 -20 13 -3
29 -15 35 -26 6 -12 22 -20 38 -21 15 0 41 -9 57 -20 17 -10 46 -26 65 -34 19
-9 42 -20 50 -25 8 -6 31 -17 50 -26 19 -9 76 -36 125 -60 50 -23 104 -46 120
-50 17 -3 50 -17 75 -29 25 -13 86 -35 135 -51 50 -15 96 -32 103 -38 8 -5 21
-11 30 -12 10 -1 51 -13 92 -27 41 -13 95 -28 120 -32 25 -4 54 -12 64 -17 61
-32 459 -98 594 -98 37 0 71 8 115 29 34 16 76 32 93 35 18 4 40 16 50 27 9
10 25 19 36 19 10 0 26 4 36 9 47 24 203 53 275 51 27 0 47 3 47 9 0 6 -6 11
-12 11 -10 0 -10 2 0 9 8 5 33 6 55 4 23 -3 69 0 102 7 33 7 78 15 100 19 37
6 40 9 46 44 4 24 1 44 -8 57 -12 18 -12 20 3 20 11 0 14 5 10 16 -17 44 -16
61 3 78 11 10 19 22 16 26 -7 12 38 48 65 52 17 2 26 10 28 25 3 17 12 24 40
29 62 10 72 15 72 34 0 23 12 31 50 32 42 1 125 45 125 65 0 12 16 21 55 31
30 7 59 18 65 23 5 5 17 9 28 9 10 0 44 14 75 32 97 54 106 58 134 58 21 0 25
4 21 20 -4 14 2 23 20 31 14 6 28 20 30 30 4 14 15 19 39 20 18 0 42 4 53 9
18 7 19 8 3 15 -20 8 -14 25 9 25 8 0 24 11 34 25 11 13 25 22 32 19 7 -2 17
9 24 26 6 17 18 30 25 29 7 -1 25 4 40 11 20 10 25 16 18 25 -8 10 -2 16 22
24 17 6 40 18 49 27 10 9 24 14 31 11 7 -2 29 4 48 13 19 10 62 23 95 29 33 7
80 16 105 21 25 5 119 16 210 25 91 9 192 20 225 25 107 17 652 41 1004 46
266 3 355 7 394 19 66 20 94 19 121 -3 l22 -17 -30 -25 c-16 -14 -46 -41 -65
-60 -20 -19 -48 -41 -63 -47 -16 -7 -28 -17 -28 -21 0 -5 -13 -23 -30 -40 -16
-18 -30 -41 -30 -52 0 -11 -7 -23 -15 -26 -10 -4 -15 -20 -15 -45 0 -31 4 -39
18 -39 10 0 23 5 30 12 9 9 15 9 24 0 17 -17 23 -15 36 13 9 19 19 25 42 25
16 0 38 7 48 15 52 47 84 66 97 61 17 -6 20 -26 5 -26 -5 0 -10 -7 -10 -16 0
-9 7 -14 18 -12 9 2 17 11 17 21 0 11 15 25 41 36 22 10 57 36 78 57 27 27 46
38 72 40 20 2 69 21 110 43 90 49 129 60 170 49 24 -6 33 -15 39 -40 15 -59 3
-130 -20 -122 -9 4 -15 0 -15 -8 0 -8 -8 -23 -18 -34 -10 -10 -44 -59 -76
-109 -85 -131 -324 -358 -491 -468 -22 -14 -58 -40 -80 -57 -22 -16 -51 -36
-65 -43 -14 -7 -45 -25 -70 -42 -59 -38 -136 -82 -180 -101 -19 -9 -42 -22
-50 -29 -8 -7 -26 -16 -40 -20 -14 -4 -34 -15 -45 -24 -11 -10 -42 -26 -70
-36 -27 -10 -81 -33 -120 -51 -38 -18 -82 -36 -97 -39 -15 -4 -32 -13 -39 -21
-6 -8 -19 -14 -28 -14 -9 0 -34 -9 -56 -19 -22 -11 -49 -23 -60 -27 -11 -4
-56 -20 -100 -36 -234 -83 -633 -199 -700 -202 -11 -1 -26 -5 -33 -10 -8 -4
-35 -10 -60 -11 -65 -4 -179 -22 -191 -30 -13 -8 -51 -13 -186 -25 -60 -6
-126 -15 -145 -20 -63 -16 -310 -30 -595 -33 -113 -1 -193 -6 -197 -12 -5 -6
-8 -5 -8 3 0 11 -15 12 -72 7 -40 -4 -75 -9 -77 -11 -2 -2 -12 3 -21 11 -13
12 -26 13 -67 6 -32 -6 -63 -7 -84 -1 -19 5 -74 12 -124 14 -49 3 -115 7 -145
10 -30 3 -89 8 -131 10 -42 3 -89 10 -104 16 -15 6 -46 10 -69 10 -60 -1 -273
34 -416 69 -19 5 -70 16 -113 25 -43 8 -83 19 -90 23 -11 7 -47 14 -147 28
-78 11 -87 14 -92 33 -4 15 -19 21 -63 26 -32 4 -79 16 -104 28 -25 12 -53 23
-61 24 -8 1 -26 6 -40 9 -14 4 -32 8 -40 9 -8 2 -27 8 -41 14 -15 6 -46 16
-70 22 -24 7 -62 21 -84 33 -67 34 -74 37 -95 37 -11 0 -28 9 -37 20 -10 11
-23 20 -29 20 -24 0 -165 61 -184 80 -10 10 -32 21 -49 25 -17 3 -33 11 -36
16 -4 5 -14 9 -24 9 -20 0 -73 24 -113 52 -14 10 -33 18 -42 18 -8 0 -29 13
-46 30 -17 16 -39 30 -48 30 -10 0 -27 7 -38 15 -10 8 -27 15 -36 15 -10 0
-25 11 -34 25 -9 14 -26 25 -38 25 -13 0 -33 11 -46 25 -13 14 -28 25 -33 25
-5 0 -27 16 -50 35 -22 19 -48 35 -56 35 -9 0 -27 9 -41 20 -14 11 -29 20 -33
20 -12 0 -80 52 -94 71 -7 9 -24 20 -37 23 -14 3 -30 15 -36 26 -6 11 -19 20
-29 20 -12 0 -21 9 -25 24 -3 14 -15 28 -26 31 -12 4 -32 17 -47 31 -14 13
-34 24 -45 24 -10 0 -24 11 -30 25 -6 13 -19 27 -28 30 -9 3 -26 19 -38 35
-13 17 -28 30 -34 30 -7 0 -24 11 -38 25 -14 14 -44 41 -67 61 -23 20 -45 44
-48 55 -4 11 -21 29 -39 42 -18 12 -55 49 -83 82 -27 33 -71 82 -96 109 -26
27 -47 54 -47 60 0 12 -57 66 -70 66 -4 0 -13 12 -19 27 -19 45 -38 74 -64 99
-14 13 -29 34 -33 46 -4 13 -15 29 -25 36 -11 7 -19 20 -19 28 0 9 -14 29 -30
46 -17 16 -30 36 -30 44 0 9 -12 31 -26 49 -25 33 -51 79 -81 140 -7 17 -21
44 -29 60 -46 87 -74 144 -89 180 -9 22 -22 54 -29 70 -8 17 -21 50 -31 75 -9
25 -22 56 -27 70 -6 14 -16 45 -23 70 -7 25 -27 90 -43 145 -56 186 -89 407
-97 640 -7 217 26 575 69 740 8 33 21 87 29 120 37 154 99 333 185 530 16 39
33 77 36 85 3 8 17 33 31 55 13 22 24 48 25 57 0 9 6 21 13 25 6 4 23 30 37
58 14 27 60 105 103 173 42 68 77 126 77 128 0 6 40 62 60 85 8 10 31 44 50
76 46 78 91 134 172 217 l68 69 0 71 c1 157 28 311 106 601 19 71 97 260 152
365 46 90 137 246 154 265 7 8 27 33 43 55 177 239 483 544 689 685 15 11 47
34 71 50 100 71 216 146 290 187 75 42 325 170 370 189 11 4 49 21 85 37 113
51 143 64 215 88 121 40 183 62 217 78 56 25 159 53 243 66 44 7 85 15 90 19
34 22 490 85 742 102 180 13 849 4 953 -12 36 -5 108 -16 160 -24 52 -8 124
-21 160 -29 36 -8 97 -18 135 -21 39 -4 85 -14 104 -21 18 -8 46 -14 62 -14
15 0 58 -11 96 -24 60 -21 213 -68 268 -83 34 -9 207 -72 265 -97 100 -43 155
-64 200 -76 25 -7 59 -19 77 -26 17 -8 35 -14 41 -14 5 0 15 -7 22 -15 14 -17
50 -20 50 -5 0 6 7 10 15 10 9 0 15 -9 15 -25 0 -18 8 -29 28 -37 15 -7 40
-23 55 -35 16 -13 37 -23 47 -23 10 0 20 -6 23 -13 2 -6 22 -18 43 -26 22 -7
47 -22 57 -32 10 -11 27 -19 38 -19 12 0 23 -8 26 -18 2 -10 12 -22 22 -27 10
-6 40 -22 67 -36 55 -30 134 -47 134 -30 0 6 -5 11 -11 11 -5 0 -9 8 -7 18 1
9 -1 22 -5 28 -4 7 0 17 8 24 23 19 18 35 -20 61 l-35 24 28 5 c25 5 27 9 27
55 0 38 4 50 16 53 18 3 39 42 39 70 0 10 5 23 12 30 9 9 8 18 -2 37 -8 14
-14 47 -14 73 -1 47 -1 47 34 50 33 3 34 2 19 -13 -13 -13 -15 -24 -8 -47 5
-18 4 -38 -3 -53 -9 -19 -7 -32 10 -65 21 -44 30 -42 34 8 2 28 5 31 32 29 25
-2 33 3 46 31 15 31 17 31 38 16 14 -10 22 -25 22 -45 0 -17 7 -37 15 -45 11
-11 13 -34 10 -97 -2 -45 1 -89 5 -97 9 -17 -6 -108 -22 -127 -5 -7 -7 -16 -4
-21 3 -5 -5 -30 -19 -56 -20 -37 -23 -51 -14 -72 10 -27 6 -52 -13 -91 -10
-19 -6 -28 24 -60 19 -21 59 -65 89 -97 30 -33 70 -75 89 -95 139 -141 339
-431 465 -674 75 -147 117 -246 182 -437 20 -58 37 -106 38 -107 0 -1 39 4 85
12 206 34 759 55 942 36 124 -13 166 -22 277 -57 40 -13 75 -24 77 -24 2 0 4
725 4 1610 l0 1610 -1010 0 c-801 0 -1010 -3 -1011 -12 -1 -7 -2 -42 -3 -78
-1 -49 -4 -65 -15 -65 -19 0 -33 53 -20 77 6 11 7 32 4 49 l-7 29 -3974 0
c-2186 0 -3974 -3 -3974 -6z m4003 -18 c24 -18 21 -24 -8 -18 -14 2 -25 11
-25 18 0 17 10 17 33 0z m3566 -496 c12 0 24 -6 26 -13 3 -6 1 -59 -4 -116 -7
-84 -12 -107 -27 -119 -13 -10 -15 -16 -6 -19 23 -9 13 -30 -12 -26 -20 4 -24
0 -30 -36 -4 -27 -11 -41 -21 -41 -8 0 -15 6 -15 14 0 8 -9 18 -21 21 -14 5
-18 12 -14 23 4 10 10 26 13 37 2 11 10 26 16 34 7 9 7 16 1 18 -27 9 -37 23
-40 59 -4 51 4 84 21 84 8 0 26 25 41 55 23 47 29 53 39 40 6 -8 21 -15 33
-15z m85 -165 c7 -28 -10 -69 -25 -60 -10 7 -13 78 -3 88 11 10 21 -1 28 -28z
m152 -52 c-2 -27 -5 -67 -5 -90 -1 -24 -5 -43 -11 -43 -5 0 -10 18 -10 40 0
26 -6 42 -17 49 -17 10 -17 12 0 25 9 7 17 20 17 28 0 13 18 38 28 38 2 0 1
-21 -2 -47z m-164 -85 c-6 -6 -15 -9 -18 -5 -4 3 -4 14 0 23 5 13 9 15 18 6 9
-9 9 -15 0 -24z m-2 -78 c0 -5 -2 -10 -4 -10 -3 0 -8 5 -11 10 -3 6 -1 10 4
10 6 0 11 -4 11 -10z m-650 -15 c0 -8 -4 -15 -10 -15 -5 0 -10 7 -10 15 0 8 5
15 10 15 6 0 10 -7 10 -15z m520 -41 c0 -12 -7 -27 -15 -34 -22 -18 -38 29
-22 63 10 22 13 23 24 8 7 -9 13 -26 13 -37z m-505 -14 c3 -5 1 -10 -4 -10 -6
0 -11 -7 -11 -15 0 -8 -4 -15 -10 -15 -11 0 -13 11 -4 34 7 18 20 21 29 6z
m505 -51 c0 -10 -7 -19 -15 -19 -18 0 -21 -63 -5 -104 6 -16 6 -27 0 -31 -6
-4 -10 -15 -10 -26 0 -21 -15 -26 -25 -8 -10 15 -48 -29 -41 -47 3 -9 1 -12
-4 -9 -21 13 -4 115 19 115 5 0 11 -8 14 -17 2 -10 4 2 4 27 0 72 20 136 43
137 14 1 20 -5 20 -18z m-526 -131 c-10 -16 -22 -7 -17 13 4 15 8 17 14 8 4
-7 5 -17 3 -21z m1806 -4378 c0 -5 -4 -10 -10 -10 -5 0 -10 5 -10 10 0 6 5 10
10 10 6 0 10 -4 10 -10z m-1407 -605 c-5 -13 -23 -22 -23 -11 0 15 14 35 21
31 4 -3 6 -12 2 -20z m-5603 -245 c0 -5 -4 -10 -10 -10 -5 0 -10 5 -10 10 0 6
5 10 10 10 6 0 10 -4 10 -10z m6899 -137 c-7 -62 4 -90 24 -62 11 14 15 14 42
-2 l30 -18 -33 -12 c-17 -6 -32 -15 -32 -19 0 -17 -33 -41 -49 -35 -9 3 -32 0
-51 -5 -38 -11 -109 5 -123 27 -5 7 -12 11 -17 8 -16 -10 -60 18 -60 37 0 18
5 19 56 12 34 -4 64 -14 75 -25 16 -16 69 -27 69 -15 0 23 -17 36 -46 36 -24
0 -34 5 -34 15 0 8 -9 15 -20 15 -21 0 -27 15 -10 25 14 9 93 -17 107 -35 6
-8 15 -11 20 -7 4 5 0 14 -10 21 -9 7 -17 25 -17 40 0 22 4 26 30 26 22 0 30
5 30 18 0 10 3 22 7 25 14 14 19 -15 12 -70z m117 16 c3 -6 17 -8 30 -5 17 5
24 2 24 -8 0 -23 -17 -28 -76 -20 -57 7 -68 23 -23 35 35 10 37 10 45 -2z m47
-96 c-7 -2 -21 -2 -30 0 -10 3 -4 5 12 5 17 0 24 -2 18 -5z m110 -44 c-4 -13
-9 -17 -16 -10 -12 12 -1 45 12 37 5 -3 7 -15 4 -27z m-447 -45 c20 -20 47
-29 76 -25 4 0 25 3 47 7 42 7 59 -9 21 -19 -12 -3 -20 -14 -20 -26 0 -17 -6
-21 -36 -21 -31 0 -36 3 -31 20 4 14 0 20 -13 20 -27 0 -103 29 -112 42 -10
17 10 38 29 31 8 -3 26 -17 39 -29z m227 -34 c4 -15 0 -20 -14 -20 -18 0 -26
20 -12 33 11 12 21 8 26 -13z m-123 -90 c30 0 -14 -29 -50 -32 -25 -2 -35 1
-38 14 -3 18 21 28 53 22 11 -2 27 -4 35 -4z m-196 -56 c24 -9 9 -24 -24 -24
-33 0 -49 16 -23 23 28 7 30 7 47 1z m202 -38 c10 -8 16 -17 13 -20 -11 -11
-69 6 -69 20 0 18 31 18 56 0z m-1586 -73 c0 -7 -7 -13 -15 -13 -8 0 -15 -3
-15 -7 -1 -25 -18 -33 -46 -23 l-29 12 24 19 c13 10 29 19 36 19 7 0 16 8 19
17 6 15 8 15 16 3 6 -8 10 -21 10 -27z m1760 28 c0 -12 -20 -25 -27 -18 -7 7
6 27 18 27 5 0 9 -4 9 -9z m-1550 -45 c0 -13 -49 -56 -63 -56 -2 0 -24 -19
-48 -41 -65 -62 -118 -94 -131 -81 -13 13 -2 32 21 32 10 0 40 23 68 50 28 28
55 50 59 50 5 0 15 9 22 20 11 19 43 38 65 39 4 1 7 -5 7 -13z m1355 4 c4 -6
-5 -10 -19 -10 -14 0 -26 5 -26 10 0 6 9 10 19 10 11 0 23 -4 26 -10z m-136
-116 c-6 -7 -15 -11 -21 -8 -5 3 -4 12 3 20 6 7 15 11 21 8 5 -3 4 -12 -3 -20z
m79 -56 c20 -20 14 -28 -23 -28 -24 0 -35 5 -35 14 0 24 39 33 58 14z m-1560
-41 c2 -10 -3 -17 -11 -17 -7 0 -33 -18 -57 -39 -33 -29 -52 -39 -76 -38 -26
1 -31 4 -22 14 5 7 14 11 18 8 4 -2 22 11 40 30 19 19 42 35 51 35 9 0 20 7
23 16 7 19 30 13 34 -9z m1657 2 c4 -6 5 -12 3 -14 -7 -8 -78 7 -78 16 0 13
68 11 75 -2z m-335 -58 c0 -14 -18 -23 -30 -16 -6 4 -8 11 -5 16 8 12 35 12
35 0z m-152 -24 c2 -10 -3 -17 -12 -17 -10 0 -16 9 -16 21 0 24 23 21 28 -4z
m-78 -63 c0 -27 -4 -34 -20 -34 -23 0 -27 29 -8 59 16 27 28 17 28 -25z
m-1275 16 c3 -5 -10 -16 -30 -24 -19 -8 -35 -20 -35 -25 0 -14 -37 -14 -45 -1
-3 5 7 16 22 22 15 7 34 18 41 25 16 15 38 17 47 3z m1335 -40 c0 -5 -4 -10
-10 -10 -5 0 -10 5 -10 10 0 6 5 10 10 10 6 0 10 -4 10 -10z m50 -20 c0 -5 -2
-10 -4 -10 -3 0 -8 5 -11 10 -3 6 -1 10 4 10 6 0 11 -4 11 -10z m-1515 -11 c9
-13 6 -15 -25 -23 -14 -3 -19 -3 -12 0 6 3 12 12 12 20 0 16 16 19 25 3z m-85
-69 c0 -5 -7 -10 -16 -10 -8 0 -12 5 -9 10 3 6 10 10 16 10 5 0 9 -4 9 -10z
m-390 -40 c0 -16 -47 -60 -64 -60 -24 0 -30 22 -10 36 10 7 24 18 29 23 13 13
45 14 45 1z m-119 -72 c8 -14 -5 -23 -78 -58 -134 -64 -145 -68 -193 -81 -25
-6 -56 -17 -70 -25 -25 -14 -87 -28 -190 -44 -30 -5 -80 -14 -110 -20 -74 -16
-332 -21 -327 -6 5 15 70 27 78 14 4 -7 9 -7 13 1 4 6 1 11 -6 11 -20 1 23 30
44 30 10 0 37 9 61 19 23 11 49 19 57 20 34 1 107 18 127 29 12 7 36 12 53 12
34 0 129 27 145 41 5 5 21 9 36 9 15 0 34 6 42 14 7 8 25 16 38 18 20 2 24 -1
22 -19 -2 -15 3 -23 12 -23 8 0 15 5 15 10 0 6 6 10 14 10 8 0 17 8 20 18 5
14 18 19 54 21 26 1 48 5 50 9 5 15 83 7 93 -10z"/>
<path d="M8865 3660 c-11 -17 5 -32 21 -19 7 6 11 15 8 20 -7 12 -21 11 -29
-1z"/>
<path d="M4934 9286 c-34 -8 -147 -13 -338 -13 -232 -1 -291 -4 -309 -16 -25
-16 -149 -35 -285 -42 -102 -5 -146 -22 -164 -60 -7 -15 -20 -25 -32 -25 -12
0 -30 -9 -39 -21 -16 -18 -25 -20 -77 -14 -56 7 -59 6 -86 -24 -21 -24 -33
-30 -48 -24 -34 11 -57 5 -85 -21 -25 -23 -51 -31 -134 -40 -43 -5 -108 -25
-121 -37 -13 -12 -17 -88 -6 -109 7 -13 7 -21 0 -25 -5 -3 -10 1 -10 11 0 12
-6 15 -22 10 -13 -3 -29 -6 -35 -6 -7 0 -13 -7 -13 -15 0 -22 -19 -18 -40 8
-15 17 -21 19 -31 10 -10 -10 -9 -14 5 -19 13 -5 14 -9 5 -20 -15 -18 -33 -18
-49 1 -11 13 -17 11 -48 -15 -21 -17 -48 -30 -64 -30 -33 0 -74 -50 -56 -68
15 -15 -17 -52 -46 -52 -25 -1 -56 -22 -56 -39 0 -14 -15 -14 -40 2 -17 10
-22 9 -30 -3 -6 -8 -8 -23 -6 -32 2 -11 -6 -21 -25 -28 -16 -7 -29 -18 -29
-25 0 -7 -9 -15 -21 -18 -11 -3 -23 -14 -26 -25 -3 -14 -17 -22 -44 -26 -23
-4 -39 -12 -39 -20 0 -18 -33 -46 -53 -46 -10 0 -17 -8 -17 -19 0 -21 -87
-121 -105 -121 -7 0 -18 -6 -24 -14 -7 -8 -21 -12 -31 -9 -15 4 -20 0 -20 -16
0 -14 -9 -25 -25 -31 -13 -5 -32 -24 -41 -42 -19 -37 -59 -79 -92 -97 -12 -7
-20 -16 -17 -20 2 -5 -4 -11 -15 -14 -13 -3 -20 -14 -20 -31 0 -15 -8 -30 -20
-36 -23 -13 -27 -45 -5 -54 22 -8 18 -36 -5 -36 -11 0 -20 -5 -20 -10 0 -6
-15 -17 -32 -25 l-33 -14 25 -10 c24 -10 24 -10 4 -16 -33 -10 -62 -58 -70
-114 -5 -35 -13 -55 -25 -62 -24 -12 -24 -29 -1 -30 10 0 12 -3 5 -6 -7 -2
-13 -21 -14 -41 0 -30 -2 -33 -9 -17 -5 11 -9 14 -9 7 -1 -7 -12 -17 -26 -22
-18 -7 -25 -17 -25 -35 0 -19 -5 -25 -22 -25 l-21 0 22 -24 c25 -26 25 -60 1
-62 -8 -1 -19 -2 -23 -3 -5 0 -1 -11 7 -23 21 -30 20 -41 -3 -29 -26 14 -34 1
-14 -22 17 -18 17 -19 0 -32 -20 -14 -22 -31 -4 -38 9 -4 9 -7 0 -18 -16 -17
-17 -42 -1 -37 13 5 48 -26 48 -42 0 -5 -4 -10 -10 -10 -5 0 -10 7 -10 15 0
20 -39 20 -46 0 -4 -8 -10 -12 -15 -9 -13 8 -11 -10 3 -24 9 -9 8 -12 -5 -12
-23 0 -38 -31 -25 -53 7 -14 6 -22 -8 -31 -10 -8 -15 -20 -11 -29 3 -9 2 -19
-3 -22 -15 -9 -12 -45 3 -51 9 -3 12 -16 9 -34 -2 -17 1 -37 8 -45 10 -13 9
-19 -10 -35 -16 -14 -20 -24 -14 -37 4 -10 8 -23 9 -29 0 -6 6 -18 14 -27 14
-18 6 -41 -11 -31 -7 5 -9 -2 -4 -19 3 -15 1 -29 -5 -33 -6 -3 -8 -15 -5 -27
3 -11 0 -29 -6 -40 -9 -18 -8 -19 16 -13 15 4 35 2 46 -4 24 -13 39 6 16 23
-11 8 -15 24 -12 52 2 22 4 48 5 57 0 9 11 18 24 20 16 2 22 10 22 28 0 22 5
25 37 28 30 3 39 8 44 27 9 36 40 61 58 46 19 -16 36 -6 36 20 0 11 7 22 16
26 8 3 22 23 31 44 15 39 27 48 38 29 13 -20 31 -8 68 45 21 31 43 52 49 49 6
-4 5 -9 -3 -15 -11 -7 -11 -11 -1 -21 21 -21 47 4 44 41 -2 25 2 31 18 31 19
0 25 13 21 53 -2 11 5 17 19 17 12 0 24 9 29 24 5 13 19 26 32 29 13 4 20 11
16 20 -6 17 26 47 50 47 13 0 14 3 5 12 -18 18 -15 28 8 28 11 0 20 7 20 15 0
8 5 15 10 15 6 0 10 8 8 18 -2 11 4 18 20 20 13 2 22 10 22 22 0 15 24 31 55
34 13 1 75 74 76 89 0 7 17 26 37 42 20 17 33 24 28 18 -4 -7 -3 -13 3 -13 5
0 13 5 16 10 3 6 12 10 20 10 8 0 26 11 41 25 26 24 26 25 5 25 -19 0 -20 3
-11 20 12 23 53 28 44 6 -3 -8 0 -17 6 -21 14 -9 50 28 50 51 0 9 9 32 21 50
22 35 53 45 63 19 3 -8 10 -15 16 -15 14 0 12 37 -2 43 -7 3 -2 6 10 6 16 1
26 -6 29 -19 5 -19 8 -18 30 12 16 22 22 41 18 56 -3 12 -1 22 4 22 5 0 11 9
14 21 3 11 14 23 24 26 22 6 63 67 63 94 0 38 29 90 47 88 24 -4 63 18 63 35
0 7 9 21 20 31 21 19 27 55 10 55 -5 0 -7 6 -4 14 3 8 12 12 20 9 10 -4 17 2
21 16 3 14 13 21 28 21 13 0 26 7 29 15 6 16 36 17 47 1 12 -16 59 3 59 24 0
27 81 107 126 126 20 8 65 38 101 65 35 28 67 48 70 45 9 -9 45 43 38 54 -3 5
3 10 14 10 24 0 63 40 71 73 8 29 57 55 107 56 34 1 45 6 62 30 12 16 21 36
21 44 0 11 14 14 63 14 89 -1 137 6 137 21 0 6 4 12 8 12 4 0 14 -6 21 -12 11
-11 14 -10 18 0 4 10 10 10 28 -2 20 -13 25 -13 35 -1 13 16 75 21 84 7 3 -5
22 -9 42 -10 28 -1 37 3 41 17 5 19 46 36 63 26 5 -3 27 2 50 11 33 13 46 14
67 5 14 -6 34 -9 45 -5 31 9 68 -4 68 -25 0 -25 35 -55 56 -47 15 6 14 10 -11
36 l-28 30 34 13 c56 23 112 13 161 -28 39 -33 100 -41 145 -20 41 20 132 14
169 -10 21 -13 88 -15 101 -2 3 4 21 0 40 -8 20 -8 55 -16 79 -17 24 0 44 -5
44 -9 0 -4 16 -10 36 -13 19 -4 38 -14 41 -21 3 -8 9 -12 14 -9 5 3 7 10 4 15
-9 13 32 11 58 -2 12 -7 35 -12 51 -11 19 0 35 -6 44 -19 7 -10 22 -19 33 -19
11 0 22 -7 25 -15 4 -8 12 -15 19 -15 8 0 42 -13 77 -30 38 -17 73 -27 85 -24
15 4 33 -5 63 -32 30 -28 54 -40 88 -45 26 -4 72 -15 102 -24 30 -10 72 -17
93 -17 29 0 37 -4 37 -18 0 -11 13 -23 33 -31 17 -7 42 -20 54 -30 14 -10 52
-19 97 -24 71 -6 75 -8 78 -33 3 -24 9 -28 53 -35 34 -5 57 -16 73 -33 19 -22
27 -24 66 -19 60 9 106 -8 154 -56 22 -21 46 -39 54 -39 7 0 29 -13 48 -30 19
-16 43 -29 53 -30 35 0 64 -29 71 -70 4 -28 14 -45 34 -57 25 -17 42 -31 106
-93 17 -16 26 -35 26 -56 0 -36 16 -53 56 -60 39 -7 44 -12 44 -39 0 -13 5
-27 10 -30 6 -4 31 -38 56 -76 25 -38 50 -69 54 -69 5 0 12 -9 15 -20 3 -11
13 -20 21 -20 22 0 17 -16 -12 -35 -20 -13 -37 -15 -74 -10 -28 4 -50 3 -54
-3 -3 -6 -34 -7 -73 -4 -100 9 -346 2 -360 -9 -6 -6 -26 -11 -43 -11 -17 -1
-33 -5 -36 -10 -3 -4 -18 -8 -35 -8 -20 0 -29 -5 -29 -16 0 -10 -6 -13 -19 -9
-12 3 -21 0 -25 -10 -3 -9 -18 -15 -41 -15 -19 0 -35 -4 -35 -10 0 -11 -73
-50 -95 -50 -8 0 -15 -4 -15 -10 0 -5 -15 -17 -32 -26 -18 -9 -50 -32 -71 -50
-20 -19 -42 -34 -48 -34 -6 0 -8 -8 -4 -19 4 -14 1 -19 -12 -17 -10 0 -22 -9
-28 -21 -5 -12 -22 -28 -37 -34 -16 -6 -28 -16 -28 -21 0 -5 -11 -24 -25 -42
-21 -27 -26 -47 -30 -122 -3 -66 -1 -96 10 -117 8 -15 12 -34 9 -41 -3 -7 2
-16 11 -20 9 -3 14 -10 10 -16 -6 -9 4 -23 63 -84 17 -19 32 -39 32 -45 0 -5
15 -24 33 -40 33 -32 67 -41 67 -18 0 12 50 50 83 63 9 3 17 10 17 15 0 12
-57 12 -64 0 -7 -11 -46 -2 -46 10 0 5 -13 9 -30 9 -27 0 -30 3 -30 29 0 17
-4 33 -10 36 -19 12 -11 45 11 45 30 0 18 24 -14 28 -28 3 -35 20 -15 40 8 8
8 15 -1 25 -25 31 40 205 77 207 6 0 12 -2 12 -5 0 -3 -6 -15 -12 -26 -8 -14
-9 -23 -3 -25 6 -2 9 -33 8 -68 l-2 -64 55 -48 c30 -27 60 -49 67 -50 7 0 19
-4 27 -7 8 -4 33 -8 55 -11 22 -2 52 -9 66 -16 20 -9 32 -9 48 -1 12 7 26 9
32 6 5 -4 19 5 30 19 11 14 25 26 31 26 11 0 82 52 113 84 27 28 45 65 35 71
-5 3 -7 21 -5 41 1 20 -2 45 -8 57 -13 28 -77 74 -114 83 -16 4 -36 14 -45 22
-24 20 -176 24 -199 4 -9 -7 -20 -12 -25 -11 -5 1 -25 -5 -44 -14 -31 -14 -35
-14 -38 0 -5 19 36 63 59 63 10 0 27 12 38 26 11 14 24 23 30 20 12 -8 57 16
82 45 19 22 21 23 33 6 16 -21 45 -22 60 -2 10 14 30 17 109 14 9 0 17 -7 17
-15 0 -14 4 -15 100 -19 66 -3 110 -19 110 -40 0 -11 11 -15 39 -15 22 0 43 5
46 10 9 15 25 12 19 -4 -3 -8 -1 -17 5 -21 6 -3 14 1 17 9 3 9 16 16 28 17 11
0 16 3 9 5 -6 3 13 30 45 63 32 33 60 57 65 54 4 -2 5 -8 2 -13 -10 -16 34 2
51 21 9 10 27 19 39 19 11 0 26 5 31 10 14 14 91 2 110 -17 8 -8 14 -21 14
-30 0 -11 6 -14 22 -10 13 4 31 -1 46 -14 14 -10 38 -19 54 -19 17 0 31 -6 35
-15 9 -24 -1 -27 -37 -9 -47 24 -64 10 -68 -55 -2 -29 1 -58 6 -64 5 -7 10
-39 10 -72 3 -130 17 -155 88 -155 24 0 32 -14 14 -25 -18 -11 -11 -64 15
-115 14 -27 25 -64 25 -81 0 -46 24 -70 64 -62 29 6 66 33 66 50 0 4 14 21 31
39 17 18 34 47 38 65 9 44 22 46 61 9 31 -29 34 -30 44 -13 6 10 12 23 12 28
1 6 2 15 3 20 2 18 21 -19 21 -42 0 -22 -32 -48 -44 -36 -3 3 -6 -3 -6 -13 0
-11 6 -26 12 -32 10 -10 10 -15 -1 -21 -11 -7 -11 -12 0 -30 8 -11 21 -21 30
-21 23 0 29 -10 17 -30 -6 -9 -8 -25 -4 -35 8 -22 62 -14 82 12 16 22 9 33
-21 33 -12 0 -25 7 -29 15 -3 8 -13 15 -21 15 -12 0 -15 8 -13 27 2 19 11 29
34 37 27 9 30 13 18 24 -16 15 -19 58 -4 67 6 3 10 14 10 24 0 10 7 24 15 31
17 14 22 125 6 135 -6 3 -13 27 -16 53 -16 120 -16 123 -41 132 -13 5 -24 16
-24 24 0 8 -12 28 -26 45 -18 22 -23 35 -16 44 20 25 20 68 1 80 -12 7 -19 23
-19 42 0 17 -9 55 -20 85 -14 39 -18 67 -14 96 4 26 2 44 -5 48 -6 4 -11 17
-11 30 0 12 -4 26 -9 32 -15 15 -62 104 -56 104 3 0 -10 16 -30 37 -19 20 -35
39 -35 43 0 17 -143 186 -169 201 -16 8 -43 28 -61 43 -18 15 -50 36 -71 47
-22 11 -39 24 -39 29 0 6 -7 10 -16 10 -11 0 -14 6 -9 20 7 22 -13 28 -33 8
-17 -17 -81 30 -89 65 -4 18 -12 27 -24 27 -11 0 -19 7 -19 18 -1 20 -30 63
-30 43 0 -8 -10 -2 -21 13 -12 15 -27 25 -34 22 -8 -3 -19 1 -25 9 -16 20 -62
29 -71 14 -12 -20 -37 7 -32 34 4 19 -3 25 -48 41 -50 18 -51 19 -28 32 21 11
22 13 6 19 -9 4 -23 3 -30 -3 -6 -5 -29 -12 -49 -16 -20 -4 -39 -12 -41 -19
-3 -9 -7 -9 -17 0 -9 9 -8 14 9 22 13 7 21 22 21 37 0 17 4 24 13 21 6 -3 21
-8 32 -12 20 -7 20 -6 1 9 -11 9 -28 16 -38 16 -12 0 -20 12 -27 38 -11 37
-51 83 -103 115 -18 11 -53 18 -98 19 -44 2 -75 7 -82 15 -9 11 -14 11 -29 -2
-16 -15 -18 -15 -24 5 -5 16 -12 19 -28 14 -12 -3 -26 -10 -31 -14 -5 -5 -15
-6 -22 -3 -16 6 -19 33 -4 33 6 0 10 5 10 11 0 5 -4 8 -8 5 -5 -3 -34 -1 -65
3 -32 4 -60 4 -63 -1 -10 -16 -25 -8 -19 11 3 11 2 22 -3 25 -6 3 -13 -4 -16
-17 -6 -21 -7 -20 -20 9 -17 38 -35 51 -47 33 -6 -10 -11 -6 -18 14 -10 26
-34 36 -45 18 -3 -4 -16 -6 -30 -4 -17 4 -22 10 -19 24 4 15 0 19 -23 20 -16
1 -37 0 -47 -1 -10 -1 -24 4 -32 10 -8 7 -18 9 -23 6 -6 -3 -12 4 -15 15 -4
16 -11 20 -26 16 -11 -3 -25 1 -32 9 -6 8 -22 14 -35 14 -12 0 -26 5 -29 10
-3 6 -14 10 -24 10 -10 0 -24 6 -30 14 -6 7 -26 16 -43 20 -17 3 -39 12 -47
20 -33 27 -331 100 -461 111 -30 3 -111 12 -180 19 -69 8 -156 17 -195 19 -38
3 -90 10 -115 16 -60 14 -173 12 -236 -3z m1969 -526 c-6 -24 -16 -25 -32 -6
-9 11 -9 15 1 19 27 11 36 7 31 -13z m167 -130 c8 -5 11 -10 5 -10 -5 0 -17 5
-25 10 -8 5 -10 10 -5 10 6 0 17 -5 25 -10z m214 -55 c17 -13 16 -14 -10 -10
-16 2 -30 4 -32 4 -6 2 9 21 16 21 4 0 15 -7 26 -15z m-104 -5 c0 -5 -2 -10
-4 -10 -3 0 -8 5 -11 10 -3 6 -1 10 4 10 6 0 11 -4 11 -10z m50 -20 c0 -5 -4
-10 -9 -10 -6 0 -13 5 -16 10 -3 6 1 10 9 10 9 0 16 -4 16 -10z m326 -157
c-10 -10 -19 5 -10 18 6 11 8 11 12 0 2 -7 1 -15 -2 -18z m-4134 -95 c-7 -7
-12 -8 -12 -2 0 14 12 26 19 19 2 -3 -1 -11 -7 -17z m-932 -210 c0 -17 -18
-44 -24 -37 -8 7 5 49 15 49 5 0 9 -6 9 -12z m-560 -438 c0 -5 -4 -10 -10 -10
-5 0 -10 5 -10 10 0 6 5 10 10 10 6 0 10 -4 10 -10z m845 -10 c-3 -5 -11 -10
-16 -10 -6 0 -7 5 -4 10 3 6 11 10 16 10 6 0 7 -4 4 -10z m-95 -79 c0 -12 -20
-25 -27 -18 -7 7 6 27 18 27 5 0 9 -4 9 -9z m4750 -281 c0 -5 -2 -10 -4 -10
-3 0 -8 5 -11 10 -3 6 -1 10 4 10 6 0 11 -4 11 -10z m-482 -226 c-10 -10 -28
6 -28 24 0 15 1 15 17 -1 9 -9 14 -19 11 -23z m-218 11 c-7 -8 -18 -15 -24
-15 -6 0 -2 7 8 15 25 19 32 19 16 0z m135 -72 c0 -27 -2 -29 -20 -19 -11 6
-21 12 -23 13 -2 1 2 11 8 23 16 29 35 20 35 -17z m1570 -13 c3 -5 -1 -10 -10
-10 -9 0 -13 5 -10 10 3 6 8 10 10 10 2 0 7 -4 10 -10z"/>
<path d="M7765 8750 c-3 -5 -2 -10 4 -10 5 0 13 5 16 10 3 6 2 10 -4 10 -5 0
-13 -4 -16 -10z"/>
<path d="M7780 8296 c0 -8 5 -18 10 -21 6 -3 10 3 10 14 0 12 -4 21 -10 21 -5
0 -10 -6 -10 -14z"/>
<path d="M7800 8246 c0 -10 9 -16 21 -16 24 0 21 23 -4 28 -10 2 -17 -3 -17
-12z"/>
<path d="M6740 7865 c-10 -12 -9 -16 4 -21 16 -6 46 11 46 27 0 15 -37 10 -50
-6z"/>
<path d="M6625 7798 c-2 -7 -5 -24 -7 -37 -2 -14 -10 -27 -18 -29 -13 -5 -13
-3 -1 12 12 14 11 19 -4 36 -17 19 -41 18 -30 0 8 -13 -29 -30 -64 -30 -30 0
-46 -11 -34 -24 3 -3 12 -1 20 5 23 20 103 -6 103 -32 0 -5 -13 -9 -29 -9 -18
0 -35 -8 -43 -19 -11 -16 -31 -20 -113 -26 -70 -4 -103 -10 -111 -21 -6 -8
-18 -12 -26 -9 -9 4 -18 -1 -21 -9 -4 -9 -15 -16 -24 -16 -10 0 -27 -9 -36
-21 -15 -17 -21 -18 -33 -8 -13 10 -17 10 -24 -1 -12 -19 -3 -30 25 -30 45 0
34 -17 -30 -49 -62 -31 -65 -35 -65 -69 0 -29 -9 -46 -40 -78 -21 -23 -42 -53
-45 -67 -4 -15 -15 -29 -26 -32 -11 -4 -24 -23 -30 -46 -7 -21 -16 -39 -21
-39 -5 0 -13 -11 -19 -24 -6 -13 -20 -26 -29 -29 -10 -3 -20 -15 -22 -28 -2
-18 -11 -25 -33 -29 -40 -7 -41 -36 -1 -33 16 1 38 -3 49 -8 15 -8 27 -7 52 7
32 17 33 17 56 -5 17 -15 25 -18 28 -9 9 32 61 51 61 23 0 -24 29 -17 36 9 3
13 21 32 40 42 18 10 38 31 43 46 7 18 17 28 30 28 14 0 21 6 21 20 0 11 -7
20 -15 20 -8 0 -15 6 -15 14 0 21 17 29 24 11 9 -25 40 -17 69 20 20 26 25 39
19 51 -10 17 -5 51 9 69 4 6 20 12 35 13 33 3 92 56 101 92 3 14 19 38 35 55
16 16 26 35 24 41 -3 7 2 20 10 31 13 17 14 16 8 -8 -3 -17 0 -32 11 -43 21
-21 32 -20 45 3 14 27 13 34 -6 27 -28 -11 -5 11 26 24 29 12 38 29 23 43 -3
4 -17 0 -30 -8 -21 -14 -23 -14 -23 5 0 11 7 23 15 26 8 4 15 15 15 25 0 11 7
22 15 25 8 4 15 12 15 20 0 8 8 14 18 14 9 0 23 9 30 20 10 16 9 23 -5 40 -20
23 -32 25 -38 8z"/>
<path d="M2853 7683 c-18 -6 -16 -23 1 -23 8 0 16 -5 18 -12 3 -7 7 -8 10 -2
9 13 -14 42 -29 37z"/>
<path d="M2460 7330 c0 -5 7 -7 15 -4 8 4 15 8 15 10 0 2 -7 4 -15 4 -8 0 -15
-4 -15 -10z"/>
<path d="M5900 6990 c0 -5 7 -10 15 -10 8 0 15 5 15 10 0 6 -7 10 -15 10 -8 0
-15 -4 -15 -10z"/>
<path d="M1605 6769 c-10 -15 3 -25 16 -12 7 7 7 13 1 17 -6 3 -14 1 -17 -5z"/>
<path d="M1873 6733 c-22 -8 -14 -23 12 -23 16 0 25 6 25 15 0 15 -14 18 -37
8z"/>
<path d="M1600 6680 c0 -5 5 -10 10 -10 6 0 10 5 10 10 0 6 -4 10 -10 10 -5 0
-10 -4 -10 -10z"/>
<path d="M6830 6635 c0 -17 2 -18 24 -9 18 7 12 24 -10 24 -8 0 -14 -7 -14
-15z"/>
<path d="M8314 6525 c-8 -20 3 -48 18 -43 6 2 16 12 22 21 8 13 7 20 -4 27
-21 14 -30 12 -36 -5z"/>
<path d="M8497 6450 c-22 -37 -21 -53 3 -75 17 -15 24 -16 49 -5 28 11 33 10
66 -21 19 -18 35 -39 35 -46 0 -17 13 -23 38 -16 26 6 28 29 7 79 -14 35 -16
35 -70 24 -22 -5 -35 1 -35 15 0 15 -33 50 -61 65 -11 7 -20 1 -32 -20z"/>
<path d="M8320 6450 c0 -5 5 -10 10 -10 6 0 10 5 10 10 0 6 -4 10 -10 10 -5 0
-10 -4 -10 -10z"/>
<path d="M9760 6383 c-101 -7 -232 -24 -248 -33 -9 -5 -51 -14 -92 -20 -41 -6
-100 -14 -130 -19 -30 -4 -66 -12 -80 -18 -14 -6 -50 -13 -80 -17 -30 -4 -69
-16 -86 -27 -34 -20 -69 -26 -96 -15 -24 11 -36 -19 -58 -142 -11 -59 -26
-143 -34 -187 -9 -44 -15 -93 -15 -110 l0 -30 22 29 c47 61 233 236 313 295
16 12 42 23 56 25 14 1 33 10 43 19 25 26 39 20 21 -8 -22 -33 -20 -58 7 -92
12 -15 27 -36 32 -45 6 -9 45 -71 88 -138 44 -67 85 -136 92 -154 7 -17 22
-39 33 -49 19 -18 24 -17 139 22 185 62 367 169 486 285 l67 67 0 149 0 149
-56 16 c-31 9 -79 18 -108 21 -28 3 -69 9 -91 14 -47 11 -161 17 -225 13z"/>
<path d="M8305 6310 c-10 -15 21 -40 42 -34 37 10 35 32 -3 36 -20 2 -37 1
-39 -2z"/>
<path d="M8410 6280 c0 -17 -4 -21 -20 -17 -32 8 -35 -13 -5 -37 23 -19 25
-24 12 -34 -17 -14 -71 -6 -88 14 -21 25 -39 15 -45 -26 -4 -22 -13 -45 -20
-51 -19 -15 -18 -38 3 -61 16 -18 16 -18 0 -12 -9 3 -28 -1 -42 -10 -13 -9
-31 -16 -40 -16 -8 0 -20 -12 -26 -26 -9 -25 -11 -26 -28 -10 -9 9 -24 16 -32
16 -8 0 -20 5 -26 11 -14 14 -81 18 -104 7 -9 -4 -20 -19 -23 -33 -4 -14 -11
-25 -16 -25 -6 0 -10 -8 -10 -18 0 -10 -18 -27 -45 -42 -24 -13 -46 -29 -49
-36 -4 -11 17 -35 76 -88 32 -29 48 -78 28 -84 -8 -3 -24 -16 -36 -29 -13 -14
-28 -21 -38 -17 -11 4 -16 0 -16 -14 0 -13 -10 -24 -27 -31 -16 -6 -35 -15
-43 -20 -8 -5 -26 -14 -40 -20 -14 -6 -32 -15 -40 -20 -8 -5 -34 -17 -57 -27
-24 -11 -46 -27 -49 -37 -4 -14 -12 -17 -30 -13 -17 5 -24 2 -24 -8 0 -7 8
-16 19 -19 17 -4 36 -64 24 -77 -8 -9 -20 23 -15 42 4 17 0 19 -29 16 -26 -2
-36 -9 -43 -31 -8 -22 -7 -30 4 -37 12 -7 11 -10 -3 -16 -11 -4 -16 -13 -13
-21 4 -11 1 -13 -14 -8 -14 5 -20 2 -20 -9 0 -9 -4 -16 -10 -16 -5 0 -10 9
-10 20 0 11 -4 20 -10 20 -5 0 -10 -9 -10 -20 0 -10 -8 -24 -19 -29 -24 -13
-34 -3 -16 16 8 8 15 21 15 29 0 24 -40 7 -75 -31 -16 -18 -40 -38 -52 -45
-13 -6 -23 -19 -23 -30 0 -19 -54 -44 -95 -45 -12 0 -20 -6 -19 -17 2 -17 -44
-32 -71 -22 -10 4 -15 0 -15 -10 0 -10 -7 -16 -17 -14 -10 2 -18 -3 -18 -12 0
-8 -10 -16 -22 -18 -14 -2 -23 2 -23 9 0 11 -2 11 -12 0 -11 -10 -10 -14 5
-22 22 -13 22 -28 -3 -54 -31 -33 -38 -160 -7 -128 4 3 23 6 42 6 36 0 79 -28
72 -47 -3 -6 2 -19 11 -28 12 -14 12 -20 2 -33 -15 -18 -41 -20 -57 -4 -18 18
-58 7 -61 -18 -3 -17 -10 -23 -30 -23 -19 0 -23 -3 -15 -11 21 -21 -6 -57 -53
-73 -42 -14 -63 -8 -49 14 4 7 -2 9 -19 4 -17 -4 -26 -2 -26 6 0 7 -8 10 -20
7 -15 -4 -20 0 -20 14 0 10 -7 19 -15 19 -8 0 -15 7 -15 15 0 8 -7 15 -15 15
-8 0 -26 18 -40 40 -27 43 -39 47 -68 26 -24 -19 -7 -62 30 -77 86 -35 109
-54 91 -76 -14 -17 18 -29 36 -14 12 10 14 6 13 -21 -2 -30 0 -33 27 -31 16 1
41 -4 57 -12 36 -19 76 -19 113 0 20 10 33 12 41 5 8 -7 17 -4 30 10 10 11 28
20 40 20 16 0 25 8 30 27 6 24 8 26 16 10 11 -19 52 -15 80 9 8 8 21 14 27 14
7 0 12 7 12 15 0 8 9 19 21 26 19 10 20 9 14 -11 -5 -16 -3 -21 6 -18 8 3 14
13 14 24 0 21 56 54 91 54 12 0 29 11 38 25 12 18 25 25 47 25 18 0 28 4 24
10 -6 9 8 14 28 11 4 -1 12 9 18 21 10 23 51 48 78 48 9 0 33 16 54 35 21 19
41 35 44 35 3 0 14 11 25 25 11 14 25 25 32 25 7 0 25 11 40 25 15 14 32 25
38 25 7 0 7 4 -1 13 -8 11 -6 18 9 32 11 10 20 24 20 32 0 7 7 13 15 13 8 0
15 3 15 8 0 11 58 34 70 27 5 -3 10 3 10 14 0 14 6 21 20 21 11 0 23 7 26 15
3 8 25 25 47 39 23 13 50 33 59 43 20 21 36 37 61 61 9 9 17 22 17 29 0 7 9
17 19 23 11 5 29 24 42 41 17 24 19 35 11 52 -22 47 -21 65 5 72 13 3 27 13
30 23 4 9 15 28 25 41 10 13 18 34 18 47 0 12 6 29 13 36 7 7 21 26 31 43 17
26 20 27 26 10 5 -14 9 -15 14 -6 5 7 6 15 3 18 -3 3 -1 17 4 32 6 14 8 45 4
69 -6 37 -10 44 -36 49 -16 3 -29 11 -29 17 0 12 -20 -14 -20 -27 0 -4 14 -16
30 -26 l30 -18 -25 -11 c-14 -6 -31 -9 -39 -6 -20 8 -29 35 -16 48 5 5 10 21
10 36 1 28 44 76 75 82 15 2 21 14 26 43 3 22 10 50 17 61 14 26 9 117 -7 122
-6 2 -11 -6 -11 -18z m-1836 -1495 c3 -8 1 -15 -4 -15 -6 0 -10 7 -10 15 0 8
2 15 4 15 2 0 6 -7 10 -15z m386 -81 c0 -8 -7 -14 -15 -14 -15 0 -21 21 -9 33
10 9 24 -2 24 -19z"/>
<path d="M4798 6112 c-26 -35 -107 -50 -158 -28 -10 4 -22 -4 -35 -25 -11 -17
-32 -37 -47 -45 -31 -16 -72 -19 -63 -4 10 15 -11 12 -24 -4 -7 -8 -26 -18
-42 -21 -16 -4 -29 -10 -29 -15 0 -9 -40 -25 -54 -22 -4 2 -20 -5 -34 -14 -18
-12 -27 -13 -30 -6 -2 7 -12 12 -23 12 -14 0 -19 -7 -19 -26 0 -14 -4 -22 -10
-19 -5 3 -17 -3 -26 -14 -13 -14 -25 -18 -49 -14 -21 3 -37 0 -48 -11 -8 -9
-24 -16 -35 -16 -26 0 -55 -43 -39 -59 8 -8 8 -11 0 -11 -6 0 -13 5 -15 12 -7
21 -27 -2 -38 -44 -8 -29 -8 -44 -1 -51 18 -18 12 -28 -8 -15 -30 18 -85 -1
-89 -32 -6 -41 -41 -65 -134 -97 -10 -3 -18 -11 -18 -18 0 -7 -6 -15 -12 -18
-10 -3 -10 -9 0 -27 11 -17 11 -24 2 -30 -7 -4 -9 -16 -5 -29 5 -15 2 -21 -9
-21 -24 0 -19 -15 8 -28 18 -8 22 -16 19 -35 -3 -14 -14 -27 -24 -30 -10 -3
-19 -14 -19 -25 0 -23 -35 -58 -44 -43 -12 19 -36 -1 -36 -31 0 -21 6 -31 20
-35 22 -6 23 -14 14 -62 -5 -21 -12 -31 -25 -31 -11 0 -19 -5 -19 -11 0 -7 -8
-6 -22 3 -18 11 -28 12 -45 3 -20 -11 -21 -14 -8 -31 8 -10 15 -34 15 -51 0
-36 14 -42 42 -16 10 9 28 21 40 27 22 12 29 21 50 74 7 17 16 32 20 32 5 0 8
11 8 25 0 32 41 114 58 115 6 0 12 5 12 10 0 6 5 10 10 10 6 0 10 -9 10 -19 0
-11 7 -26 15 -35 8 -8 15 -19 15 -24 0 -12 84 -20 125 -12 22 5 29 11 27 24
-2 11 1 15 7 11 6 -3 11 -12 11 -19 0 -8 6 -19 14 -25 11 -9 15 -8 20 5 9 25
-4 106 -20 122 -19 19 -17 36 6 57 11 10 20 24 20 32 0 7 7 13 16 13 12 0 15
7 12 25 -6 30 14 49 44 42 26 -7 61 15 57 35 -5 24 20 56 49 63 16 3 46 21 67
40 31 29 40 33 57 24 16 -9 24 -7 42 10 12 12 27 21 33 21 6 0 13 9 16 20 3
12 14 20 27 20 14 0 24 8 27 21 5 16 12 20 34 17 16 -3 27 0 26 6 -1 6 4 10
12 8 7 -1 19 2 25 8 7 5 15 8 18 5 10 -10 133 25 145 41 6 9 16 13 21 10 22
-13 44 6 37 33 -4 21 -3 23 5 11 9 -11 13 -12 17 -2 2 6 9 12 15 12 6 0 5 -6
-2 -15 -7 -9 -10 -19 -5 -23 4 -4 20 9 36 28 23 27 32 31 41 22 7 -7 22 -12
34 -12 12 0 27 -7 34 -15 18 -22 35 -18 49 12 9 19 15 23 23 15 8 -8 17 -6 35
7 15 12 37 18 63 17 37 -2 39 0 42 28 3 30 28 50 28 22 0 -9 8 -16 18 -16 27
0 62 28 56 45 -4 8 -1 15 5 15 15 0 14 43 -1 58 -18 18 -44 14 -60 -10 -14
-20 -19 -21 -74 -12 -50 8 -59 12 -62 32 -4 25 -12 28 -30 10 -10 -10 -17 -10
-33 0 -11 7 -24 10 -29 7 -5 -3 -12 -1 -15 5 -5 8 -11 7 -21 -1 -10 -8 -14 -8
-14 0 0 6 -7 11 -15 11 -8 0 -15 -4 -15 -10 0 -5 -7 -10 -15 -10 -8 0 -15 4
-15 10 0 10 -52 40 -69 40 -5 0 -16 -8 -23 -18z m272 -166 c0 -3 -4 -8 -10
-11 -5 -3 -10 -1 -10 4 0 6 5 11 10 11 6 0 10 -2 10 -4z m-973 -142 c-3 -3
-12 -4 -19 -1 -8 3 -5 6 6 6 11 1 17 -2 13 -5z m-312 -494 c3 -5 1 -10 -4 -10
-6 0 -11 5 -11 10 0 6 2 10 4 10 3 0 8 -4 11 -10z m-83 -85 c-18 -36 -32 -45
-32 -20 0 8 5 15 10 15 6 0 10 9 10 20 0 11 7 20 15 20 12 0 12 -5 -3 -35z"/>
<path d="M8515 6120 c-11 -5 -32 -9 -47 -9 -30 -1 -46 -17 -31 -32 10 -10 113
30 113 44 0 9 -9 8 -35 -3z"/>
<path d="M1830 5816 c0 -2 7 -7 16 -10 8 -3 12 -2 9 4 -6 10 -25 14 -25 6z"/>
<path d="M1890 5771 c0 -7 -6 -11 -15 -7 -17 6 -20 -11 -6 -33 7 -11 10 -9 16
9 7 21 9 19 28 -18 11 -22 29 -43 40 -46 17 -4 18 -8 8 -20 -16 -19 -6 -36 21
-36 17 0 19 -4 14 -26 -6 -21 1 -33 39 -72 24 -26 45 -52 45 -59 0 -20 54
-103 67 -103 6 0 21 -12 32 -26 12 -15 21 -23 21 -18 0 4 14 -7 31 -24 33 -34
52 -42 43 -17 -4 9 0 15 10 15 9 0 17 -7 17 -15 1 -8 2 -21 3 -27 0 -7 16 -22
33 -33 26 -15 32 -25 28 -42 -3 -13 -1 -23 4 -23 5 0 11 8 14 18 2 10 8 1 16
-25 8 -30 16 -41 26 -37 9 4 15 0 15 -8 0 -19 42 -38 69 -31 22 6 30 -12 9
-20 -10 -4 -10 -6 -1 -6 6 -1 15 4 18 9 9 15 19 12 46 -12 13 -12 17 -19 8
-16 -12 5 -16 -1 -16 -22 0 -19 5 -26 14 -23 7 3 13 -2 13 -11 0 -11 9 -16 30
-16 22 0 30 -5 30 -18 0 -25 11 -34 26 -22 9 8 17 4 32 -15 23 -29 32 -32 32
-10 0 8 5 15 10 15 6 0 10 -5 10 -12 0 -6 11 -25 24 -42 17 -23 41 -36 90 -51
36 -11 66 -24 66 -30 0 -5 23 -22 50 -36 48 -26 66 -25 35 1 -9 7 -13 20 -10
28 3 8 -3 16 -16 19 -12 4 -18 11 -15 20 3 8 -2 17 -12 20 -18 7 -51 43 -52
56 0 4 -25 39 -55 77 -49 61 -53 70 -38 79 14 8 15 12 6 22 -10 10 -17 9 -34
-6 -20 -19 -20 -19 -14 7 9 35 -2 66 -26 73 -10 4 -19 15 -19 25 0 10 -7 20
-15 24 -8 3 -15 12 -15 21 0 20 -19 19 -41 -1 -21 -19 -39 -11 -39 19 0 15
-10 26 -30 35 -17 8 -29 20 -28 30 3 44 -3 73 -14 69 -7 -2 -12 -11 -10 -21 6
-35 -30 -13 -84 54 -32 38 -66 72 -76 76 -10 3 -18 10 -18 15 0 5 -7 9 -15 9
-18 0 -19 -12 -3 -28 7 -7 8 -12 2 -12 -18 0 -44 35 -44 57 0 16 -8 23 -30 28
-16 4 -34 4 -39 1 -5 -3 -8 1 -7 9 2 21 -75 65 -82 47 -3 -10 -8 -8 -18 7 -12
17 -82 49 -93 42 -2 -2 -8 4 -13 13 -5 9 -18 16 -28 16 -13 0 -20 7 -20 20 0
13 -7 20 -18 20 -18 0 -49 29 -70 66 -7 12 -12 14 -12 5z m460 -351 c0 -5 -2
-10 -4 -10 -3 0 -8 5 -11 10 -3 6 -1 10 4 10 6 0 11 -4 11 -10z"/>
<path d="M5050 5666 c-3 -2 -45 -7 -94 -9 -48 -2 -91 -8 -94 -14 -4 -6 -27
-14 -52 -18 -28 -5 -51 -16 -63 -31 -10 -13 -25 -24 -33 -24 -15 0 -76 -39
-82 -52 -2 -5 -8 -8 -12 -8 -11 0 -73 -41 -95 -64 -9 -9 -23 -16 -31 -16 -8 0
-19 -11 -24 -25 -5 -14 -16 -25 -24 -25 -9 0 -21 -10 -27 -22 -6 -13 -30 -45
-53 -73 -23 -27 -47 -63 -55 -80 -7 -16 -22 -47 -33 -68 -13 -26 -17 -47 -13
-67 4 -19 3 -30 -4 -30 -6 0 -11 5 -11 11 0 6 -6 9 -12 7 -13 -5 -17 -21 -22
-83 -3 -29 -24 -85 -37 -95 -18 -14 -18 -49 1 -73 11 -14 20 -34 20 -45 0 -11
7 -33 15 -48 8 -16 15 -37 15 -46 0 -18 11 -23 23 -11 4 3 2 12 -3 18 -13 15
-2 47 14 42 6 -2 10 -13 8 -25 -2 -11 7 -40 18 -63 17 -33 19 -43 9 -50 -8 -4
-10 -12 -5 -16 5 -4 11 -2 13 5 3 6 13 12 24 12 22 0 24 11 7 28 -7 7 -8 12
-2 12 6 0 19 -9 30 -21 l18 -20 38 41 c21 22 38 44 38 49 0 4 16 29 36 54 25
32 43 46 58 45 29 -3 76 30 69 48 -3 8 -9 14 -14 14 -5 0 -9 5 -9 10 0 6 9 10
20 10 11 0 20 5 20 11 0 7 10 9 25 7 36 -7 40 7 7 28 -36 23 -104 94 -120 125
-19 35 0 207 23 216 8 2 12 10 10 16 -3 7 4 23 15 37 l19 25 9 -26 c6 -13 17
-31 27 -39 10 -9 14 -22 11 -36 -4 -16 3 -37 26 -68 32 -46 77 -71 143 -79 21
-3 29 -9 27 -21 -3 -19 2 -20 30 -5 14 8 27 8 42 1 39 -19 69 -21 103 -7 18 8
33 18 33 23 0 5 13 15 29 22 40 16 97 75 123 127 20 40 20 44 5 61 -9 10 -17
33 -17 50 0 22 -5 32 -15 32 -9 0 -20 11 -25 25 -5 14 -14 25 -20 25 -6 0 -20
9 -32 20 -12 11 -29 20 -39 20 -9 0 -28 9 -42 20 -14 11 -32 17 -41 14 -8 -3
-32 0 -52 6 -33 11 -39 11 -51 -6 -13 -17 -14 -17 -27 2 -20 27 -3 44 44 44
22 0 43 7 50 15 9 11 22 14 42 10 17 -4 35 -2 43 5 14 12 146 17 163 6 6 -3
13 2 17 12 6 16 7 16 16 0 7 -13 17 -16 39 -11 23 4 30 2 30 -10 0 -27 28 -41
55 -29 25 11 25 11 25 -35 0 -32 -5 -50 -17 -59 -14 -10 -15 -15 -6 -25 10
-10 17 -10 35 0 41 22 84 63 71 67 -14 6 32 54 52 54 8 0 15 4 15 9 0 14 -50
51 -70 51 -10 0 -23 6 -29 14 -6 7 -30 16 -53 19 -23 3 -47 12 -53 19 -5 7
-17 14 -25 14 -8 1 -27 5 -42 9 -19 5 -28 3 -28 -4 0 -8 -7 -7 -22 2 -22 13
-158 24 -168 13z m-115 -257 c-9 -14 -34 2 -28 17 4 11 9 12 19 3 8 -6 11 -15
9 -20z m-66 -70 c9 -27 8 -29 -13 -29 -13 0 -31 9 -41 20 -18 20 -18 21 0 34
25 18 41 11 54 -25z m-299 -549 c0 -5 -7 -10 -15 -10 -8 0 -15 5 -15 10 0 6 7
10 15 10 8 0 15 -4 15 -10z"/>
<path d="M2016 5492 c-3 -6 -1 -14 5 -17 15 -10 25 3 12 16 -7 7 -13 7 -17 1z"/>
<path d="M7418 5343 c7 -3 16 -2 19 1 4 3 -2 6 -13 5 -11 0 -14 -3 -6 -6z"/>
<path d="M3650 5275 c0 -8 5 -15 10 -15 6 0 10 7 10 15 0 8 -4 15 -10 15 -5 0
-10 -7 -10 -15z"/>
<path d="M2670 5225 c0 -8 5 -15 10 -15 6 0 10 7 10 15 0 8 -4 15 -10 15 -5 0
-10 -7 -10 -15z"/>
<path d="M3569 5148 c-5 -17 -4 -48 3 -48 4 0 8 4 8 9 0 5 3 16 6 25 3 9 1 16
-5 16 -6 0 -11 -1 -12 -2z"/>
<path d="M10195 5105 c-22 -19 -45 -35 -51 -35 -6 0 -21 -11 -34 -24 -12 -14
-35 -28 -50 -31 -15 -3 -36 -15 -46 -26 -9 -10 -23 -19 -31 -19 -7 0 -13 -4
-13 -10 0 -5 -4 -10 -10 -10 -18 0 -90 -34 -90 -43 0 -4 -17 -15 -37 -24 -31
-12 -35 -17 -23 -27 23 -17 51 -84 61 -146 42 -253 43 -266 43 -550 0 -270 -2
-292 -28 -425 -48 -248 -133 -532 -215 -724 -24 -57 -29 -76 -19 -82 18 -11
114 3 293 41 22 5 69 9 104 10 35 0 93 5 128 11 l63 11 0 1069 c0 588 -1 1069
-2 1069 -2 -1 -21 -16 -43 -35z"/>
<path d="M5363 4978 c-6 -14 -7 -32 -2 -46 8 -20 6 -23 -14 -20 -14 2 -23 11
-25 26 -4 28 -26 24 -30 -6 -2 -15 2 -22 12 -22 9 0 26 -10 37 -21 27 -27 35
-16 45 59 7 55 -5 70 -23 30z"/>
<path d="M6471 4958 c-8 -24 3 -56 26 -71 7 -4 10 -13 7 -21 -3 -9 6 -13 31
-14 19 -1 35 2 35 6 0 14 -24 32 -42 32 -13 0 -19 11 -24 40 -8 48 -21 60 -33
28z"/>
<path d="M5027 4940 c-3 -11 -1 -23 4 -26 5 -3 9 6 9 20 0 31 -6 34 -13 6z"/>
<path d="M5204 4924 c3 -9 6 -22 6 -29 0 -7 7 -15 15 -19 12 -4 15 3 15 29 0
29 -4 35 -21 35 -15 0 -19 -4 -15 -16z"/>
<path d="M6846 4895 c4 -8 10 -12 15 -9 14 8 10 24 -6 24 -9 0 -12 -6 -9 -15z"/>
<path d="M2695 4880 c-3 -5 -1 -10 4 -10 6 0 11 5 11 10 0 6 -2 10 -4 10 -3 0
-8 -4 -11 -10z"/>
<path d="M4745 4850 c20 -23 29 -21 19 4 -3 9 -13 16 -22 16 -13 0 -12 -3 3
-20z"/>
<path d="M6890 4814 c0 -8 5 -12 10 -9 6 3 10 10 10 16 0 5 -4 9 -10 9 -5 0
-10 -7 -10 -16z"/>
<path d="M6935 4821 c-6 -11 9 -23 19 -14 9 9 7 23 -3 23 -6 0 -12 -4 -16 -9z"/>
<path d="M5156 4772 c-3 -6 -1 -14 5 -17 15 -10 25 3 12 16 -7 7 -13 7 -17 1z"/>
<path d="M4545 4740 c-3 -5 1 -10 9 -10 9 0 16 5 16 10 0 6 -4 10 -9 10 -6 0
-13 -4 -16 -10z"/>
<path d="M5044 4709 c-10 -17 13 -36 27 -22 12 12 4 33 -11 33 -5 0 -12 -5
-16 -11z"/>
<path d="M4172 4679 c2 -7 10 -15 17 -17 8 -3 12 1 9 9 -2 7 -10 15 -17 17 -8
3 -12 -1 -9 -9z"/>
<path d="M7925 4530 c-4 -6 -3 -16 3 -22 13 -13 23 4 13 21 -7 10 -10 10 -16
1z"/>
<path d="M7890 4480 c0 -5 7 -10 15 -10 8 0 15 5 15 10 0 6 -7 10 -15 10 -8 0
-15 -4 -15 -10z"/>
<path d="M7864 4356 c-6 -17 2 -36 17 -36 12 0 12 37 -1 45 -6 3 -13 -1 -16
-9z"/>
<path d="M7830 4285 c0 -30 15 -33 30 -6 14 27 13 31 -10 31 -15 0 -20 -7 -20
-25z"/>
<path d="M9915 2869 c-22 -4 -103 -20 -180 -35 -77 -15 -166 -35 -199 -45 -32
-11 -76 -19 -98 -19 -21 0 -55 -7 -75 -15 -19 -8 -49 -15 -64 -15 -36 0 -52
-33 -43 -91 7 -39 7 -39 43 -33 20 4 51 13 70 20 43 18 87 18 94 1 3 -9 16
-12 36 -9 17 2 29 8 26 12 -3 4 2 13 9 19 11 10 16 9 23 -4 5 -9 20 -18 34
-20 122 -16 140 -17 153 -6 12 10 20 9 39 -4 32 -20 87 -8 103 23 9 19 13 20
30 8 10 -7 35 -16 54 -19 19 -3 42 -8 51 -12 10 -4 25 3 40 19 27 29 47 33 55
11 10 -24 22 -17 29 16 8 37 25 45 65 31 l30 -11 0 54 0 54 -32 -10 c-18 -5
-38 -16 -44 -24 -7 -10 -14 -11 -21 -4 -8 8 -17 8 -31 0 -11 -6 -34 -11 -50
-11 -29 0 -34 7 -82 109 -8 19 -17 20 -65 10z m95 -209 c0 -5 -7 -10 -15 -10
-8 0 -15 5 -15 10 0 6 7 10 15 10 8 0 15 -4 15 -10z"/>
<path d="M8095 2830 c-3 -5 1 -10 9 -10 8 0 18 5 21 10 3 6 -1 10 -9 10 -8 0
-18 -4 -21 -10z"/>
<path d="M8254 2784 c10 -10 24 -13 37 -9 17 6 19 9 8 16 -8 5 -24 9 -37 9
-21 0 -22 -1 -8 -16z"/>
<path d="M8380 2749 c0 -5 5 -7 10 -4 6 3 10 8 10 11 0 2 -4 4 -10 4 -5 0 -10
-5 -10 -11z"/>
<path d="M8207 2743 c-3 -5 17 -8 43 -9 27 0 47 3 44 8 -6 10 -81 11 -87 1z"/>
<path d="M8819 2681 c-79 -6 -114 -23 -104 -49 3 -8 -6 -33 -20 -54 -22 -33
-24 -41 -12 -53 21 -20 147 -23 204 -4 48 15 58 32 38 63 -16 24 -16 26 -1 26
22 0 29 21 17 53 -7 17 -17 26 -28 25 -10 -1 -52 -4 -94 -7z m-112 -143 c-3
-8 -6 -5 -6 6 -1 11 2 17 5 13 3 -3 4 -12 1 -19z"/>
<path d="M9190 2564 c0 -11 8 -14 27 -12 39 4 42 28 4 28 -21 0 -31 -5 -31
-16z"/>
<path d="M8635 2540 c-3 -5 1 -10 10 -10 9 0 13 5 10 10 -3 6 -8 10 -10 10 -2
0 -7 -4 -10 -10z"/>
<path d="M8099 2199 c-8 -11 -21 -21 -30 -22 -8 -2 -26 -13 -39 -25 -13 -12
-30 -22 -37 -22 -7 0 -15 -17 -19 -39 -6 -35 -10 -40 -40 -45 -39 -8 -50 -21
-35 -40 8 -10 8 -22 1 -40 -14 -39 -12 -66 5 -66 8 0 19 9 25 20 6 11 19 20
30 20 29 0 50 11 50 25 0 8 10 17 23 21 32 9 57 34 57 56 0 10 4 18 9 18 22 0
40 31 35 59 -7 32 15 47 45 31 18 -9 31 -4 31 12 0 4 -8 8 -18 8 -10 0 -29 11
-42 25 -28 30 -34 31 -51 4z"/>
</g>
</svg>
