<?xml version="1.0" standalone="no"?>
<!DOCTYPE svg PUBLIC "-//W3C//DTD SVG 20010904//EN"
 "http://www.w3.org/TR/2001/REC-SVG-20010904/DTD/svg10.dtd">
<svg version="1.0" xmlns="http://www.w3.org/2000/svg"
 width="920.000000pt" height="920.000000pt" viewBox="0 0 920.000000 920.000000"
 preserveAspectRatio="xMidYMid meet">
<metadata>
Created by potrace 1.11, written by Peter Selinger 2001-2013
</metadata>
<g transform="translate(0.000000,920.000000) scale(0.100000,-0.100000)"
fill="#000000" stroke="none">
<path d="M1400 9000 l0 -200 -100 0 -100 0 0 -500 0 -500 -100 0 -100 0 -1
-702 c-1 -887 0 -852 -13 -860 -8 -5 -7 -8 2 -8 6 0 12 -6 12 -13 0 -10 -21
-13 -84 -13 -46 1 -88 5 -93 10 -4 5 4 7 20 4 19 -4 25 -2 19 4 -12 12 -47 7
-43 -6 2 -5 -2 -12 -8 -15 -7 -4 -11 -85 -11 -228 -1 -150 -5 -223 -12 -225
-14 -5 -21 -45 -9 -52 4 -3 7 6 5 19 -1 14 2 25 7 25 5 0 7 -27 5 -59 -2 -33
0 -65 4 -72 5 -7 32 -12 66 -13 39 0 63 -5 70 -15 9 -11 12 -12 19 -1 5 9 4
11 -3 6 -7 -4 -12 -2 -12 4 0 5 14 9 30 8 17 -1 30 -6 30 -11 0 -5 -8 -6 -17
-3 -16 5 -16 5 -2 -7 14 -11 16 -57 18 -395 l2 -382 -101 0 -100 0 0 320 c1
195 5 320 11 320 5 0 8 -6 6 -12 -3 -19 46 -16 50 2 3 9 1 11 -4 5 -11 -14
-47 -19 -38 -6 3 6 -1 14 -9 17 -9 3 -16 13 -16 21 0 8 5 11 10 8 6 -4 5 5 -2
20 -10 21 -9 28 2 35 16 10 24 47 11 54 -4 3 -7 -6 -5 -19 1 -14 -2 -25 -8
-25 -6 0 -8 8 -5 19 10 38 -8 48 -78 45 -36 -2 -65 0 -65 5 0 5 11 8 25 7 13
-2 22 1 19 5 -7 12 -44 5 -53 -10 -5 -7 -11 -12 -15 -12 -37 5 -36 17 -36
-399 l0 -400 -100 0 -100 0 0 -100 0 -100 -100 0 -100 0 0 -300 0 -300 100 0
100 0 0 -99 c0 -70 4 -100 12 -103 7 -3 52 -3 99 -1 l85 3 1 -92 c1 -51 2 -96
2 -100 1 -5 46 -8 100 -8 109 0 111 1 105 63 -3 20 0 37 5 37 5 0 8 -11 7 -25
-2 -13 1 -22 5 -19 11 7 6 44 -8 52 -6 4 -10 25 -9 47 1 40 1 40 41 41 22 1
43 -4 47 -10 5 -8 8 -7 8 2 0 9 14 12 48 10 l47 -3 3 102 3 103 99 0 100 0 0
-300 0 -300 100 0 100 0 0 -100 0 -100 200 0 200 0 0 -100 0 -100 100 0 100 0
0 300 0 300 100 0 100 0 0 -200 0 -200 100 0 100 0 0 -100 0 -100 100 0 100 0
0 200 0 200 100 0 100 0 0 -300 0 -300 -100 0 -100 0 0 -100 0 -100 -100 0
-100 0 0 -100 0 -100 -100 0 -100 0 0 -100 0 -100 -100 0 -100 0 0 -100 0
-100 -100 0 -100 0 0 -100 0 -100 -100 0 -100 0 0 -100 0 -100 -100 0 -100 0
0 -600 0 -600 100 0 100 0 0 -100 0 -100 1000 0 1000 0 0 -100 0 -100 1000 0
1000 0 0 100 0 100 100 0 100 0 0 100 0 100 100 0 100 0 0 100 0 100 100 0
100 0 0 -100 0 -100 200 0 200 0 0 -100 0 -100 100 0 100 0 0 -100 0 -100 200
0 200 0 0 100 0 100 100 0 100 0 0 400 0 400 100 0 100 0 0 100 0 100 100 0
100 0 0 100 0 100 -100 0 -100 0 0 100 0 100 100 0 100 0 0 100 0 100 100 0
100 0 2 403 3 402 -102 -3 -103 -3 0 200 0 201 100 0 100 0 0 -100 c0 -101 1
-104 36 -99 4 0 10 -5 15 -12 9 -15 46 -22 53 -10 3 4 -6 7 -19 5 -14 -1 -25
1 -25 5 0 4 31 8 69 8 l68 0 -2 -86 c-1 -47 0 -92 3 -98 3 -9 33 -13 103 -13
100 0 103 1 98 36 0 4 5 10 12 15 7 4 14 18 16 31 2 17 1 19 -6 8 -5 -8 -7
-18 -5 -22 3 -4 1 -8 -3 -8 -5 0 -9 32 -9 70 0 39 3 65 7 58 9 -14 46 -21 53
-9 3 4 -6 7 -19 5 -14 -1 -25 1 -25 5 0 4 32 8 70 8 39 0 70 -4 70 -9 0 -4 -5
-7 -12 -6 -14 3 -20 -40 -7 -48 5 -3 17 0 26 6 16 10 16 10 -2 5 -16 -4 -21 0
-22 15 -1 11 2 18 7 15 5 -3 13 3 19 12 9 16 12 16 21 3 7 -10 10 19 10 98 l0
112 100 0 100 0 0 300 0 300 -100 0 -100 0 0 300 0 300 100 0 100 0 0 500 0
500 -100 0 -100 0 0 400 0 400 300 0 300 0 0 100 0 100 -200 0 -200 0 0 100 0
100 -100 0 -100 0 0 100 0 100 -100 0 -100 0 0 600 0 600 -200 0 -200 0 0 100
0 100 -400 0 -400 0 0 300 0 300 -100 0 -100 0 0 200 0 200 -200 0 -200 0 0
-100 0 -100 -100 0 -100 0 0 -100 0 -100 -100 0 -100 0 0 -100 0 -100 -100 0
-100 0 0 -100 0 -100 -200 0 -200 0 0 100 0 100 -100 0 -100 0 0 100 0 100
-100 0 -100 0 0 100 0 100 -200 0 -200 0 0 100 0 100 -600 0 -600 0 0 -100 0
-100 -200 0 -200 0 0 -100 0 -100 -200 0 -200 0 0 -100 0 -100 -100 0 -100 0
0 100 0 100 -200 0 -200 0 0 100 0 100 -100 0 -100 0 0 100 0 100 -100 0 -100
0 0 100 0 100 -200 0 -200 0 0 -200z m6200 -5700 l0 -100 100 0 100 0 0 -100
0 -100 -100 0 -100 0 0 -200 0 -200 -100 0 -100 0 0 -100 0 -100 -100 0 -100
0 0 -100 0 -100 -200 0 -200 0 0 100 0 100 -100 0 -100 0 0 100 0 100 -100 0
-100 0 0 200 0 200 100 0 100 0 0 -200 0 -200 100 0 100 0 0 200 0 200 100 0
100 0 0 -100 0 -100 100 0 100 0 0 100 0 100 100 0 100 0 0 200 0 200 100 0
100 0 0 -100z"/>
<path d="M870 6389 c0 -5 5 -7 10 -4 6 3 10 8 10 11 0 2 -4 4 -10 4 -5 0 -10
-5 -10 -11z"/>
<path d="M957 6389 c7 -7 15 -10 18 -7 3 3 -2 9 -12 12 -14 6 -15 5 -6 -5z"/>
<path d="M899 6383 c-1 -4 -1 -12 0 -17 1 -4 -11 -6 -26 -2 -23 5 -25 4 -10
-5 21 -12 51 -4 42 11 -3 5 3 10 15 10 12 0 19 -4 16 -9 -7 -10 39 -43 48 -34
10 10 7 33 -4 33 -5 0 -7 -7 -3 -16 5 -14 3 -14 -15 -3 -11 7 -20 18 -19 23 1
6 -8 12 -20 14 -13 2 -24 0 -24 -5z"/>
<path d="M814 6338 c-3 -5 -3 -12 0 -15 3 -4 6 -2 6 3 0 5 8 10 18 11 13 1 18
-5 18 -19 -1 -20 27 -33 45 -22 11 6 0 34 -13 34 -6 0 -6 -6 2 -14 9 -12 8
-15 -10 -13 -14 1 -20 7 -18 22 2 15 -3 20 -20 21 -12 1 -25 -3 -28 -8z"/>
<path d="M910 6340 c0 -5 5 -10 10 -10 6 0 10 5 10 10 0 6 -4 10 -10 10 -5 0
-10 -4 -10 -10z"/>
<path d="M930 6319 c-12 -8 -10 -9 7 -4 19 5 22 3 17 -12 -5 -14 -4 -15 4 -3
19 25 0 38 -28 19z"/>
<path d="M977 6303 c-9 -9 -9 -41 1 -46 4 -3 7 8 7 24 0 16 0 29 -1 29 0 0 -4
-3 -7 -7z"/>
<path d="M820 6290 c0 -5 0 -13 1 -16 0 -4 -5 -11 -13 -16 -11 -8 -10 -9 1 -6
13 4 28 48 16 48 -3 0 -5 -4 -5 -10z"/>
<path d="M841 6274 c0 -11 3 -14 6 -6 3 7 2 16 -1 19 -3 4 -6 -2 -5 -13z"/>
<path d="M918 6283 c7 -3 16 -2 19 1 4 3 -2 6 -13 5 -11 0 -14 -3 -6 -6z"/>
<path d="M870 6269 c0 -5 5 -7 10 -4 6 3 10 8 10 11 0 2 -4 4 -10 4 -5 0 -10
-5 -10 -11z"/>
<path d="M895 6261 c-3 -5 0 -13 6 -17 7 -4 9 -3 5 4 -4 7 1 10 14 9 21 -1 27
-12 10 -20 -6 -3 -5 -4 2 -3 7 2 13 9 13 16 0 15 -41 24 -50 11z"/>
<path d="M866 6236 c10 -8 21 -12 24 -10 5 6 -21 24 -34 24 -6 0 -1 -6 10 -14z"/>
<path d="M950 6220 c0 -5 5 -10 10 -10 6 0 10 5 10 10 0 6 -4 10 -10 10 -5 0
-10 -4 -10 -10z"/>
<path d="M636 5787 c3 -10 9 -15 12 -12 3 3 0 11 -7 18 -10 9 -11 8 -5 -6z"/>
<path d="M668 5793 c7 -3 16 -2 19 1 4 3 -2 6 -13 5 -11 0 -14 -3 -6 -6z"/>
<path d="M774 5792 c5 -8 -1 -12 -16 -13 -18 -1 -19 -2 -4 -6 23 -6 43 12 25
22 -8 5 -10 4 -5 -3z"/>
<path d="M699 5785 c-6 -26 -1 -49 11 -53 9 -2 11 0 5 5 -5 4 -10 15 -10 23 0
8 5 18 10 22 6 5 5 8 -2 8 -7 0 -13 -2 -14 -5z"/>
<path d="M621 5762 c-1 -15 -5 -21 -13 -16 -7 5 -8 3 -3 -5 10 -18 28 2 22 25
-4 15 -5 14 -6 -4z"/>
<path d="M660 5760 c0 -5 5 -10 10 -10 6 0 10 5 10 10 0 6 -4 10 -10 10 -5 0
-10 -4 -10 -10z"/>
<path d="M639 5743 c0 -5 -3 -19 -5 -32 -2 -14 -2 -22 1 -19 8 8 17 58 10 58
-3 0 -5 -3 -6 -7z"/>
<path d="M668 5723 c7 -3 16 -2 19 1 4 3 -2 6 -13 5 -11 0 -14 -3 -6 -6z"/>
<path d="M718 5713 c7 -3 16 -2 19 1 4 3 -2 6 -13 5 -11 0 -14 -3 -6 -6z"/>
<path d="M654 5698 c-7 -11 5 -28 19 -27 9 0 9 2 0 6 -20 7 -15 19 7 20 13 1
18 -2 14 -9 -4 -7 -2 -8 5 -4 6 4 9 11 6 16 -6 10 -45 9 -51 -2z"/>
<path d="M753 5693 c0 -12 3 -20 6 -18 2 3 10 -3 18 -13 13 -16 13 -15 4 3
-22 43 -30 51 -28 28z"/>
<path d="M714 5675 c-4 -8 -11 -12 -17 -8 -6 3 -7 1 -3 -5 3 -6 15 -9 27 -7
14 3 19 -1 17 -13 -2 -9 -7 -21 -13 -25 -6 -5 -4 -7 5 -4 18 4 21 53 3 50 -7
-2 -13 1 -13 6 0 5 6 12 13 14 9 4 9 6 -1 6 -7 1 -15 -6 -18 -14z"/>
<path d="M636 5667 c3 -10 9 -15 12 -12 3 3 0 11 -7 18 -10 9 -11 8 -5 -6z"/>
<path d="M621 5642 c-1 -15 -5 -21 -13 -16 -7 5 -8 3 -3 -5 10 -18 28 2 22 25
-4 15 -5 14 -6 -4z"/>
<path d="M668 5643 c7 -3 16 -2 19 1 4 3 -2 6 -13 5 -11 0 -14 -3 -6 -6z"/>
<path d="M761 5634 c0 -11 3 -14 6 -6 3 7 2 16 -1 19 -3 4 -6 -2 -5 -13z"/>
<path d="M884 5579 c-4 -7 -3 -9 4 -5 7 4 10 -1 9 -14 -2 -25 -6 -25 -24 -2
-13 15 -13 15 -3 -6 13 -27 32 -25 36 6 4 24 -11 38 -22 21z"/>
<path d="M921 5554 c0 -11 3 -14 6 -6 3 7 2 16 -1 19 -3 4 -6 -2 -5 -13z"/>
<path d="M957 5563 c-13 -12 -7 -23 11 -22 10 0 12 3 4 6 -6 2 -10 9 -6 14 6
10 0 12 -9 2z"/>
<path d="M817 5518 c-7 -5 0 -6 17 -4 16 3 31 7 33 10 8 8 -37 2 -50 -6z"/>
<path d="M951 5511 c13 -11 27 -17 31 -14 11 6 10 33 -2 33 -5 0 -7 -8 -3 -17
6 -17 5 -17 -14 0 -11 9 -23 17 -27 17 -5 0 2 -9 15 -19z"/>
<path d="M871 5511 c-15 -10 -23 -39 -15 -53 3 -4 16 -1 29 8 14 9 22 20 19
25 -3 5 4 9 16 9 12 0 19 -4 15 -9 -3 -6 4 -15 15 -21 13 -7 20 -7 20 0 0 5
-7 10 -15 10 -8 0 -14 6 -12 13 1 7 -8 12 -23 12 -14 0 -24 -5 -23 -11 1 -5
-7 -16 -18 -22 -17 -11 -20 -10 -17 5 2 10 10 23 18 30 18 14 11 17 -9 4z"/>
<path d="M830 5461 c0 -6 4 -13 10 -16 6 -3 7 1 4 9 -7 18 -14 21 -14 7z"/>
<path d="M910 5460 c0 -5 5 -10 10 -10 6 0 10 5 10 10 0 6 -4 10 -10 10 -5 0
-10 -4 -10 -10z"/>
<path d="M885 5440 c3 -5 8 -10 11 -10 2 0 4 5 4 10 0 6 -5 10 -11 10 -5 0 -7
-4 -4 -10z"/>
<path d="M939 5443 c-1 -5 -1 -12 0 -17 1 -5 -5 -6 -14 -3 -8 4 -15 2 -15 -4
0 -6 8 -9 17 -7 9 2 15 7 14 12 -2 5 3 13 11 17 10 7 10 9 1 9 -7 0 -14 -3
-14 -7z"/>
<path d="M968 5423 c6 -2 9 -10 6 -15 -4 -7 -2 -8 5 -4 13 9 5 26 -12 25 -9 0
-8 -2 1 -6z"/>
<path d="M457 3783 c-2 -5 -3 -16 -2 -25 2 -11 -3 -16 -16 -15 -21 1 -25 12
-9 20 6 3 5 4 -2 3 -24 -5 -14 -31 12 -31 20 0 25 5 24 23 -1 16 3 22 12 18 8
-3 14 -1 14 4 0 12 -27 13 -33 3z"/>
<path d="M525 3763 c-8 -12 -15 -26 -15 -30 0 -4 9 5 19 20 10 16 21 28 25 27
4 -1 12 1 19 3 6 3 2 4 -11 4 -12 -1 -29 -11 -37 -24z"/>
<path d="M819 3788 c-6 -22 -5 -38 3 -38 6 0 7 7 4 16 -4 12 -2 15 9 10 8 -3
15 -1 15 4 0 8 -28 15 -31 8z"/>
<path d="M910 3780 c0 -5 7 -7 16 -3 14 5 14 3 3 -15 -7 -11 -18 -20 -23 -19
-6 1 -11 -9 -11 -23 0 -16 5 -24 14 -22 10 2 12 -4 7 -25 -5 -23 -4 -25 5 -10
12 21 4 51 -11 42 -5 -3 -10 3 -10 15 0 12 4 19 9 16 10 -7 43 39 34 48 -10
10 -33 7 -33 -4z"/>
<path d="M492 3764 c-7 -8 -8 -14 -3 -14 10 0 25 19 20 25 -2 1 -10 -3 -17
-11z"/>
<path d="M860 3759 c0 -11 -4 -18 -8 -15 -4 2 -14 0 -22 -5 -11 -7 -8 -8 10
-6 17 3 26 11 28 25 2 12 1 22 -2 22 -3 0 -6 -9 -6 -21z"/>
<path d="M561 3753 c-5 -10 -13 -18 -18 -18 -4 0 -8 -9 -8 -20 1 -14 7 -19 21
-18 14 1 20 -4 20 -17 0 -11 -6 -20 -13 -20 -7 0 -13 -5 -13 -10 0 -7 6 -7 18
-1 26 14 22 57 -4 54 -13 -1 -20 5 -21 18 -1 11 2 17 6 15 4 -3 15 4 24 15 9
10 13 19 7 19 -5 0 -13 -8 -19 -17z"/>
<path d="M957 3763 c-13 -12 -7 -23 11 -22 10 0 12 3 4 6 -6 2 -10 9 -6 14 6
10 0 12 -9 2z"/>
<path d="M473 3723 c4 -6 1 -13 -7 -16 -7 -3 -13 -16 -12 -29 1 -17 6 -22 21
-20 15 2 21 -4 22 -18 2 -18 -1 -19 -13 -10 -8 8 -14 8 -14 2 0 -13 28 -24 34
-13 11 18 -2 46 -22 45 -14 0 -20 5 -19 18 1 10 7 18 14 18 16 0 17 16 1 26
-6 4 -8 3 -5 -3z"/>
<path d="M930 3720 c0 -5 5 -10 10 -10 6 0 10 5 10 10 0 6 -4 10 -10 10 -5 0
-10 -4 -10 -10z"/>
<path d="M977 3715 c3 -10 0 -15 -8 -13 -9 2 -13 -5 -12 -19 2 -14 -2 -22 -9
-20 -14 2 -20 -41 -7 -49 5 -3 17 0 26 6 16 10 16 10 -2 5 -16 -4 -21 0 -22
15 -1 11 4 19 10 17 7 -1 11 8 10 20 -2 13 2 22 9 20 7 -1 14 6 16 16 2 9 -1
17 -7 17 -6 0 -8 -7 -4 -15z"/>
<path d="M428 3713 c7 -3 16 -2 19 1 4 3 -2 6 -13 5 -11 0 -14 -3 -6 -6z"/>
<path d="M838 3713 c7 -3 16 -2 19 1 4 3 -2 6 -13 5 -11 0 -14 -3 -6 -6z"/>
<path d="M870 3704 c0 -13 18 -39 24 -34 2 3 -2 14 -10 24 -8 11 -14 16 -14
10z"/>
<path d="M425 3680 c3 -5 8 -10 11 -10 2 0 4 5 4 10 0 6 -5 10 -11 10 -5 0 -7
-4 -4 -10z"/>
<path d="M491 3685 c4 -3 19 -8 35 -11 16 -3 26 -2 23 1 -4 3 -19 8 -35 11
-16 3 -26 2 -23 -1z"/>
<path d="M840 3679 c0 -5 5 -7 10 -4 6 3 10 8 10 11 0 2 -4 4 -10 4 -5 0 -10
-5 -10 -11z"/>
<path d="M991 3674 c0 -11 3 -14 6 -6 3 7 2 16 -1 19 -3 4 -6 -2 -5 -13z"/>
<path d="M856 3662 c-8 -13 0 -46 12 -50 6 -2 16 7 22 20 10 21 10 21 -3 6
-18 -23 -22 -23 -24 2 -1 13 2 18 9 14 7 -4 8 -2 4 4 -8 14 -13 15 -20 4z"/>
<path d="M420 3650 c0 -5 0 -13 1 -16 0 -4 -5 -11 -13 -16 -11 -8 -10 -9 1 -6
13 4 28 48 16 48 -3 0 -5 -4 -5 -10z"/>
<path d="M521 3644 c0 -11 3 -14 6 -6 3 7 2 16 -1 19 -3 4 -6 -2 -5 -13z"/>
<path d="M441 3634 c0 -11 3 -14 6 -6 3 7 2 16 -1 19 -3 4 -6 -2 -5 -13z"/>
<path d="M831 3634 c0 -11 3 -14 6 -6 3 7 2 16 -1 19 -3 4 -6 -2 -5 -13z"/>
<path d="M970 3646 c0 -2 7 -7 16 -10 8 -3 12 -2 9 4 -6 10 -25 14 -25 6z"/>
<path d="M533 3617 c-3 -5 -2 -11 1 -14 3 -4 6 -1 6 6 0 7 4 10 8 7 4 -2 14
-1 22 4 11 7 9 9 -8 7 -13 -1 -26 -5 -29 -10z"/>
<path d="M8174 2775 c-3 -8 -4 -20 -2 -27 3 -7 7 -1 10 15 6 29 1 36 -8 12z"/>
<path d="M8020 2770 c0 -5 0 -13 1 -16 0 -4 -5 -11 -13 -16 -11 -8 -10 -9 1
-6 13 4 28 48 16 48 -3 0 -5 -4 -5 -10z"/>
<path d="M8041 2754 c0 -11 3 -14 6 -6 3 7 2 16 -1 19 -3 4 -6 -2 -5 -13z"/>
<path d="M8118 2763 c7 -3 16 -2 19 1 4 3 -2 6 -13 5 -11 0 -14 -3 -6 -6z"/>
<path d="M8476 2759 c2 -4 -1 -9 -8 -11 -14 -5 -21 -45 -9 -53 5 -3 13 0 17 6
4 7 3 9 -4 5 -7 -4 -10 1 -9 14 1 11 7 20 13 20 7 0 14 6 17 13 3 8 -1 14 -9
14 -7 0 -11 -4 -8 -8z"/>
<path d="M8570 2766 c0 -2 7 -7 16 -10 8 -3 12 -2 9 4 -6 10 -25 14 -25 6z"/>
<path d="M8070 2749 c0 -5 5 -7 10 -4 6 3 10 8 10 11 0 2 -4 4 -10 4 -5 0 -10
-5 -10 -11z"/>
<path d="M8428 2753 c7 -3 16 -2 19 1 4 3 -2 6 -13 5 -11 0 -14 -3 -6 -6z"/>
<path d="M8095 2741 c-3 -5 0 -13 6 -17 7 -4 9 -3 5 4 -4 7 1 10 14 9 21 -1
27 -12 10 -20 -6 -3 -5 -4 2 -3 7 2 13 9 13 16 0 15 -41 24 -50 11z"/>
<path d="M8066 2716 c10 -8 21 -12 24 -10 5 6 -21 24 -34 24 -6 0 -1 -6 10
-14z"/>
<path d="M8160 2715 c-7 -9 -11 -17 -9 -20 3 -2 10 5 17 15 14 24 10 26 -8 5z"/>
<path d="M8420 2719 c0 -5 5 -7 10 -4 6 3 10 8 10 11 0 2 -4 4 -10 4 -5 0 -10
-5 -10 -11z"/>
<path d="M8490 2720 c0 -5 5 -10 10 -10 6 0 10 5 10 10 0 6 -4 10 -10 10 -5 0
-10 -4 -10 -10z"/>
<path d="M8574 2715 c4 -10 -1 -14 -17 -12 -17 2 -21 -3 -22 -23 0 -15 5 -24
13 -22 6 1 12 -7 12 -18 0 -11 -5 -19 -11 -17 -6 1 -14 -5 -16 -13 -4 -12 -3
-12 5 -2 5 8 13 13 18 13 5 -1 9 9 9 22 0 12 -5 21 -12 20 -6 -2 -11 6 -10 17
1 12 8 18 20 17 12 -1 21 5 22 16 2 9 -1 17 -7 17 -6 0 -8 -7 -4 -15z"/>
<path d="M8015 2701 c-3 -6 -3 -11 2 -11 4 0 1 -5 -7 -11 -13 -9 -13 -10 0 -6
8 2 14 10 13 16 -2 6 6 11 18 11 11 0 17 -5 14 -10 -9 -15 21 -23 42 -11 15 9
13 10 -10 5 -20 -5 -27 -3 -25 7 4 16 -37 25 -47 10z"/>
<path d="M8174 2695 c-3 -8 -4 -20 -2 -27 3 -7 7 -1 10 15 6 29 1 36 -8 12z"/>
<path d="M8441 2674 c0 -11 3 -14 6 -6 3 7 2 16 -1 19 -3 4 -6 -2 -5 -13z"/>
<path d="M8580 2680 c-9 -6 -10 -10 -3 -10 6 0 15 5 18 10 8 12 4 12 -15 0z"/>
<path d="M8470 2670 c0 -5 7 -7 15 -4 8 4 15 8 15 10 0 2 -7 4 -15 4 -8 0 -15
-4 -15 -10z"/>
<path d="M8030 2660 c0 -5 5 -10 10 -10 6 0 10 5 10 10 0 6 -4 10 -10 10 -5 0
-10 -4 -10 -10z"/>
<path d="M8099 2667 c0 -1 -2 -13 -5 -27 -3 -18 -2 -21 5 -10 5 8 8 17 5 21
-2 4 4 7 15 6 12 -1 19 -8 18 -19 -1 -11 -7 -16 -14 -14 -7 3 -13 1 -13 -5 0
-6 8 -9 17 -7 27 5 23 50 -4 54 -13 2 -23 3 -24 1z"/>
<path d="M8513 2652 c0 -12 5 -22 9 -22 11 0 10 12 -2 30 -7 12 -9 10 -7 -8z"/>
<path d="M8592 2640 c0 -14 2 -19 5 -12 2 6 2 18 0 25 -3 6 -5 1 -5 -13z"/>
<path d="M8008 2642 c8 -5 13 -13 12 -18 0 -5 6 -10 14 -12 9 -2 16 1 16 7 0
6 -7 8 -15 4 -10 -3 -15 -1 -13 7 2 7 -4 15 -12 17 -12 4 -12 3 -2 -5z"/>
<path d="M8065 2640 c3 -5 8 -10 11 -10 2 0 4 5 4 10 0 6 -5 10 -11 10 -5 0
-7 -4 -4 -10z"/>
<path d="M8165 2639 c-4 -6 -5 -12 -2 -15 2 -3 7 2 10 11 7 17 1 20 -8 4z"/>
<path d="M8450 2645 c0 -8 29 -12 39 -5 9 5 4 8 -13 8 -14 0 -26 -2 -26 -3z"/>
<path d="M8415 2621 c-3 -5 0 -13 6 -17 7 -4 9 -3 5 4 -3 6 3 12 16 15 23 4
23 4 1 6 -12 0 -24 -3 -28 -8z"/>
<path d="M8484 2619 c-4 -7 -3 -9 4 -5 5 3 13 0 15 -6 4 -9 6 -10 6 -1 1 17
-16 25 -25 12z"/>
</g>
</svg>
